<?xml version="1.0"?>
<svg xmlns="http://www.w3.org/2000/svg" xmlns:xlink="http://www.w3.org/1999/xlink" xmlns:svgjs="http://svgjs.com/svgjs" version="1.1" width="512" height="512" x="0" y="0" viewBox="0 0 512 512" style="enable-background:new 0 0 512 512" xml:space="preserve" class=""><g>
<g xmlns="http://www.w3.org/2000/svg">
	<g>
		<g>
			<path d="M486.4,59.733H25.6C11.468,59.749,0.015,71.201,0,85.333v341.333c0.015,14.132,11.468,25.585,25.6,25.6h460.8     c14.132-0.015,25.585-11.468,25.6-25.6V85.333C511.985,71.201,500.532,59.749,486.4,59.733z M494.933,102.4h-17.067     c-4.713,0-8.533,3.821-8.533,8.533s3.82,8.533,8.533,8.533h17.067v307.2c-0.006,4.71-3.823,8.527-8.533,8.533H25.6     c-4.71-0.006-8.527-3.823-8.533-8.533v-307.2H25.6c4.713,0,8.533-3.82,8.533-8.533S30.313,102.4,25.6,102.4h-8.533V85.333     c0.006-4.71,3.823-8.527,8.533-8.533h460.8c4.71,0.006,8.527,3.823,8.533,8.533V102.4z" fill="#024b74" data-original="#000000" style="" class=""/>
			<path d="M59.733,119.467h25.6c4.713,0,8.533-3.82,8.533-8.533s-3.821-8.533-8.533-8.533h-25.6c-4.713,0-8.533,3.821-8.533,8.533     S55.021,119.467,59.733,119.467z" fill="#024b74" data-original="#000000" style="" class=""/>
			<path d="M119.467,119.467h25.6c4.713,0,8.533-3.82,8.533-8.533s-3.821-8.533-8.533-8.533h-25.6c-4.713,0-8.533,3.821-8.533,8.533     S114.754,119.467,119.467,119.467z" fill="#024b74" data-original="#000000" style="" class=""/>
			<path d="M179.2,119.467h25.6c4.713,0,8.533-3.82,8.533-8.533s-3.821-8.533-8.533-8.533h-25.6c-4.713,0-8.533,3.821-8.533,8.533     S174.487,119.467,179.2,119.467z" fill="#024b74" data-original="#000000" style="" class=""/>
			<path d="M238.933,119.467h25.6c4.713,0,8.533-3.82,8.533-8.533s-3.821-8.533-8.533-8.533h-25.6c-4.713,0-8.533,3.821-8.533,8.533     S234.221,119.467,238.933,119.467z" fill="#024b74" data-original="#000000" style="" class=""/>
			<path d="M332.8,110.933c0-4.713-3.82-8.533-8.533-8.533h-25.6c-4.713,0-8.533,3.821-8.533,8.533s3.82,8.533,8.533,8.533h25.6     C328.979,119.467,332.8,115.646,332.8,110.933z" fill="#024b74" data-original="#000000" style="" class=""/>
			<path d="M358.4,119.467H384c4.713,0,8.533-3.82,8.533-8.533s-3.82-8.533-8.533-8.533h-25.6c-4.713,0-8.533,3.821-8.533,8.533     S353.687,119.467,358.4,119.467z" fill="#024b74" data-original="#000000" style="" class=""/>
			<path d="M418.133,119.467h25.6c4.713,0,8.533-3.82,8.533-8.533s-3.82-8.533-8.533-8.533h-25.6c-4.713,0-8.533,3.821-8.533,8.533     S413.421,119.467,418.133,119.467z" fill="#024b74" data-original="#000000" style="" class=""/>
			<path d="M281.6,145.067H59.733c-9.422,0.009-17.057,7.645-17.067,17.067v230.4c0.009,9.422,7.645,17.057,17.067,17.067H281.6     c9.422-0.009,17.057-7.645,17.067-17.067v-230.4C298.657,152.712,291.022,145.076,281.6,145.067z M59.733,162.133H281.6     l0.008,167.142L215.1,262.767c-1.6-1.601-3.77-2.5-6.033-2.5s-4.433,0.899-6.033,2.5l-40.9,40.9L116.966,258.5     c-1.6-1.601-3.77-2.5-6.033-2.5s-4.434,0.899-6.033,2.5l-45.166,45.167V162.133z M59.733,392.533V327.8l51.2-51.2l75.034,75.034     c2.151,2.178,5.304,3.037,8.262,2.251c2.958-0.786,5.269-3.097,6.055-6.055s-0.073-6.111-2.251-8.262L174.2,315.733     l34.867-34.867l72.544,72.544l0.002,39.123H59.733z" fill="#024b74" data-original="#000000" style="" class=""/>
			<path d="M234.667,238.933c16.495,0,29.867-13.372,29.867-29.867c0-16.495-13.372-29.867-29.867-29.867     c-16.495,0-29.867,13.372-29.867,29.867C204.82,225.553,218.18,238.913,234.667,238.933z M234.667,196.267     c7.069,0,12.8,5.731,12.8,12.8c0,7.069-5.731,12.8-12.8,12.8c-7.069,0-12.8-5.731-12.8-12.8     C221.874,202.001,227.601,196.274,234.667,196.267z" fill="#024b74" data-original="#000000" style="" class=""/>
			<path d="M452.267,145.067H341.333c-9.422,0.009-17.057,7.645-17.067,17.067v34.133c0.009,9.422,7.645,17.057,17.067,17.067     h110.933c9.422-0.009,17.057-7.645,17.067-17.067v-34.133C469.324,152.712,461.688,145.076,452.267,145.067z M341.333,196.267     v-34.133h110.933l0.013,34.133H341.333z" fill="#024b74" data-original="#000000" style="" class=""/>
			<path d="M460.8,230.4h-128c-4.713,0-8.533,3.82-8.533,8.533s3.821,8.533,8.533,8.533h128c4.713,0,8.533-3.82,8.533-8.533     S465.513,230.4,460.8,230.4z" fill="#024b74" data-original="#000000" style="" class=""/>
			<path d="M460.8,264.533h-128c-4.713,0-8.533,3.82-8.533,8.533s3.821,8.533,8.533,8.533h128c4.713,0,8.533-3.82,8.533-8.533     S465.513,264.533,460.8,264.533z" fill="#024b74" data-original="#000000" style="" class=""/>
			<path d="M460.8,298.667h-128c-4.713,0-8.533,3.82-8.533,8.533s3.821,8.533,8.533,8.533h128c4.713,0,8.533-3.82,8.533-8.533     S465.513,298.667,460.8,298.667z" fill="#024b74" data-original="#000000" style="" class=""/>
		</g>
	</g>
</g>
<g xmlns="http://www.w3.org/2000/svg">
</g>
<g xmlns="http://www.w3.org/2000/svg">
</g>
<g xmlns="http://www.w3.org/2000/svg">
</g>
<g xmlns="http://www.w3.org/2000/svg">
</g>
<g xmlns="http://www.w3.org/2000/svg">
</g>
<g xmlns="http://www.w3.org/2000/svg">
</g>
<g xmlns="http://www.w3.org/2000/svg">
</g>
<g xmlns="http://www.w3.org/2000/svg">
</g>
<g xmlns="http://www.w3.org/2000/svg">
</g>
<g xmlns="http://www.w3.org/2000/svg">
</g>
<g xmlns="http://www.w3.org/2000/svg">
</g>
<g xmlns="http://www.w3.org/2000/svg">
</g>
<g xmlns="http://www.w3.org/2000/svg">
</g>
<g xmlns="http://www.w3.org/2000/svg">
</g>
<g xmlns="http://www.w3.org/2000/svg">
</g>
</g></svg>
