<svg xmlns="http://www.w3.org/2000/svg" width="19" height="14.261" viewBox="0 0 19 14.261"><defs><style>.a{fill:#024b74;}</style></defs><path class="a" d="M6.385,14.262H6.31a2.34,2.34,0,0,1-.873-.194L.959,12.116A1.623,1.623,0,0,1,0,10.631V1.9A1.6,1.6,0,0,1,1.58.286,1.548,1.548,0,0,1,2.207.42L6.061,2.1a.623.623,0,0,0,.294.064l.052,0a.623.623,0,0,0,.244-.051L11.793.154A2.277,2.277,0,0,1,12.624,0h.062a2.357,2.357,0,0,1,.877.194l4.477,1.952A1.621,1.621,0,0,1,19,3.63v8.727a1.6,1.6,0,0,1-1.58,1.617,1.549,1.549,0,0,1-.627-.134l-3.854-1.677a.731.731,0,0,0-.293-.065l-.05,0a.632.632,0,0,0-.248.05l-5.142,1.96A2.228,2.228,0,0,1,6.385,14.262ZM11.875,1.84,7.207,3.623l-.082.032v8.767l4.668-1.782.082-.033Zm1.584.065v8.726l.1.048,3.853,1.678V3.63ZM1.584,1.9v8.726l3.958,1.727V3.63l-.1-.048Z" transform="translate(0 0)"/></svg>