<svg xmlns="http://www.w3.org/2000/svg" width="21.72" height="19.9" viewBox="0 0 21.72 19.9"><defs><style>.a{fill:#024b74;}</style></defs><g transform="translate(-18.64 -63.55)"><path class="a" d="M24.51,6.37H11.57a2.669,2.669,0,0,0-5.06,0H4.49a.85.85,0,0,0,0,1.7H6.51a2.669,2.669,0,0,0,5.061,0H24.51a.85.85,0,1,0,0-1.7ZM9.04,8.19a.97.97,0,1,1,.97-.97A.972.972,0,0,1,9.04,8.19Z" transform="translate(15 59)"/><path class="a" d="M24.51,13.65H22.49a2.669,2.669,0,0,0-5.06,0H4.49a.85.85,0,0,0,0,1.7H17.43a2.669,2.669,0,0,0,5.06,0h2.02a.85.85,0,1,0,0-1.7Zm-4.55,1.82a.97.97,0,1,1,.97-.97A.972.972,0,0,1,19.96,15.47Z" transform="translate(15 59)"/><path class="a" d="M24.51,20.931h-9.3a2.669,2.669,0,0,0-5.06,0H4.49a.85.85,0,0,0,0,1.7h5.66a2.669,2.669,0,0,0,5.06,0h9.3a.85.85,0,1,0,0-1.7Zm-11.83,1.82a.97.97,0,1,1,.97-.97A.972.972,0,0,1,12.68,22.751Z" transform="translate(15 59)"/></g></svg>