<svg xmlns="http://www.w3.org/2000/svg" width="13.834" height="12.271" viewBox="0 0 13.834 12.271"><defs><style>.a{fill:#c53f3f;}</style></defs><path class="a" d="M7.948,11.712A6.913,6.913,0,0,0,8.979,9.237a10.569,10.569,0,0,0,.186-1.806V6.787c0-.189-.087-.24-.273-.253A8.34,8.34,0,0,1,5.623,5.7a5.147,5.147,0,0,1-.634-.354L4.84,5.259a.275.275,0,0,0-.124-.038.662.662,0,0,0-.124.038l-.149.088A6.44,6.44,0,0,1,3.8,5.7a8.34,8.34,0,0,1-3.269.833c-.186.013-.273.051-.273.253v.631A10.308,10.308,0,0,0,.439,9.224,6.913,6.913,0,0,0,1.471,11.7a7.043,7.043,0,0,0,3.12,2.45.5.5,0,0,0,.224,0A6.971,6.971,0,0,0,7.948,11.712Zm-.957-2.8a.269.269,0,0,1-.3.1l-.075-.038v1.6h.162v.29H2.639v-.29h.174v-1.6l-.075.038a.269.269,0,0,1-.3-.1A.216.216,0,0,1,2.4,8.782a.279.279,0,0,1,.112-.2,1.831,1.831,0,0,1,.162-.126c.075-.051,1.7-1.326,1.84-1.44a.5.5,0,0,1,.112-.063h0a.045.045,0,0,0,.037-.013h.1a.045.045,0,0,1,.037.013h0a1.143,1.143,0,0,1,.124.063c.224.177.46.354.684.53l.149.114.758.594c.087.063.162.126.249.2a1.831,1.831,0,0,0,.162.126.206.206,0,0,1,.112.2A.382.382,0,0,1,6.99,8.909Z" transform="translate(-0.253 -1.891)"/><path class="a" d="M13.3,3.854,10.765,1.029A.808.808,0,0,0,10.2.789H4.526A1.02,1.02,0,0,0,3.5,1.811v1.93h0a1.105,1.105,0,0,1,1.065.415V1.833H9.721V3.9A1.02,1.02,0,0,0,10.743,4.92h1.75v7.1H6.667A6.923,6.923,0,0,1,5.309,13.06h7.206a1.02,1.02,0,0,0,1.022-1.022V4.42A.808.808,0,0,0,13.3,3.854Z" transform="translate(0.297 -0.789)"/><path class="a" d="M8.313,6.923h2.434V6.347H8.295a.749.749,0,0,1,.018.185v.391Z" transform="translate(1.172 -0.609)"/><path class="a" d="M8.179,8.534h2.554V7.958H8.253C8.234,8.154,8.216,8.338,8.179,8.534Z" transform="translate(1.186 -0.556)"/><path class="a" d="M7.663,10.144h3.015V9.568H7.866C7.8,9.775,7.737,9.96,7.663,10.144Z" transform="translate(1.25 -0.504)"/></svg>