<svg xmlns="http://www.w3.org/2000/svg" width="15.246" height="15" viewBox="0 0 15.246 15"><defs><style>.a{fill:#024b74;}</style></defs><g transform="translate(-159.877 -116)"><g transform="translate(159.631 115.754)"><path class="a" d="M9.1,7.377h3.443a.246.246,0,0,0,.246-.246V6.393a.246.246,0,0,0-.246-.246h-.492V4.426A.246.246,0,0,0,11.8,4.18H9.836a.246.246,0,0,0-.246.246V6.148H9.1a.246.246,0,0,0-.246.246v.738A.246.246,0,0,0,9.1,7.377Zm.984-2.7h1.475v.246H10.082Zm0,.738h1.475v.738H10.082Zm-.738,1.23H12.3v.246H9.344Z"/><path class="a" d="M12.787,10.82v-.738a.246.246,0,0,0-.246-.246h-.492V8.115a.246.246,0,0,0-.246-.246H9.836a.246.246,0,0,0-.246.246V9.836H9.1a.246.246,0,0,0-.246.246v.738a.246.246,0,0,0,.246.246h3.443A.246.246,0,0,0,12.787,10.82Zm-2.7-2.459h1.475v.246H10.082Zm0,.738h1.475v.738H10.082ZM12.3,10.574H9.344v-.246H12.3Z"/><path class="a" d="M11.066,13.033a.246.246,0,0,0-.246.246v.492a.246.246,0,0,0,.492,0v-.492A.246.246,0,0,0,11.066,13.033Z"/><path class="a" d="M4.18,7.377H7.623a.246.246,0,0,0,.246-.246V6.393a.246.246,0,0,0-.246-.246H7.131V4.426a.246.246,0,0,0-.246-.246H4.918a.246.246,0,0,0-.246.246V6.148H4.18a.246.246,0,0,0-.246.246v.738A.246.246,0,0,0,4.18,7.377Zm.984-2.7H6.639v.246H5.164Zm0,.738H6.639v.738H5.164Zm-.738,1.23H7.377v.246H4.426Z"/><path class="a" d="M7.869,10.82v-.738a.246.246,0,0,0-.246-.246H7.131V8.115a.246.246,0,0,0-.246-.246H4.918a.246.246,0,0,0-.246.246V9.836H4.18a.246.246,0,0,0-.246.246v.738a.246.246,0,0,0,.246.246H7.623A.246.246,0,0,0,7.869,10.82Zm-2.7-2.459H6.639v.246H5.164Zm0,.738H6.639v.738H5.164Zm2.213,1.475H4.426v-.246H7.377Z"/><path class="a" d="M6.148,13.033a.246.246,0,0,0-.246.246v.492a.246.246,0,0,0,.492,0v-.492A.246.246,0,0,0,6.148,13.033Z"/><path class="a" d="M15.246,14.754H13.524V9.344h.738a1.23,1.23,0,0,0,.081-2.456,1.741,1.741,0,0,0-.819-.82V3.2A.246.246,0,0,0,13.432,3L10.973,1.037a.247.247,0,0,0-.307,0L8.361,2.882,6.055,1.037a.247.247,0,0,0-.307,0l-.695.556a1.22,1.22,0,0,0-.792-.361A1.721,1.721,0,0,0,1,1.749a.984.984,0,0,0,.232,1.94H3.2V14.754H.492a.246.246,0,1,0,0,.492H15.246a.246.246,0,1,0,0-.492ZM13.524,6.641a1.236,1.236,0,0,1,.423.575.246.246,0,0,0,.251.164l.064,0a.738.738,0,0,1,0,1.475h-.738ZM3.289,3A.246.246,0,0,0,3.2,3.2H1.23a.492.492,0,0,1,0-.984.246.246,0,0,0,.246-.246,1.23,1.23,0,0,1,2.39-.407.247.247,0,0,0,.251.164l.064,0a.733.733,0,0,1,.485.182ZM4.672,14.754H3.689v-.246h.984Zm1.967,0H5.164V12.3H6.639Zm1.475,0H7.131v-.246h.984Zm0-.738H7.131V12.049a.246.246,0,0,0-.246-.246H4.918a.246.246,0,0,0-.246.246v1.967H3.689V4.545L5.9,2.774l2.213,1.77Zm0-10.1L6.055,2.267a.247.247,0,0,0-.307,0L3.689,3.914v-.6L5.9,1.545l2.213,1.77ZM9.59,14.754H8.607v-.246H9.59Zm1.967,0H10.082V12.3h1.475Zm1.475,0h-.984v-.246h.984Zm0-.738h-.984V12.049A.246.246,0,0,0,11.8,11.8H9.836a.246.246,0,0,0-.246.246v1.967H8.607V4.545l2.213-1.77,2.213,1.77Zm0-10.1L10.973,2.267a.247.247,0,0,0-.307,0L8.607,3.914v-.6l2.213-1.77,2.213,1.77Z"/></g></g></svg>