<svg xmlns="http://www.w3.org/2000/svg" width="28.028" height="37.567" viewBox="0 0 28.028 37.567"><defs><style>.a{fill:#828e95;}</style></defs><g transform="translate(-6.348)"><path class="a" d="M29.434,5.493h2.118a.55.55,0,1,0,0-1.1H29.985V3.3h1.567a.55.55,0,1,0,0-1.1H29.985V1.1h1.567a.55.55,0,1,0,0-1.1H29.434a.55.55,0,0,0-.55.55V4.942A.55.55,0,0,0,29.434,5.493Z" transform="translate(-5.604)"/><path class="a" d="M23.7,1.1h.545V4.942a.55.55,0,1,0,1.1,0V1.1h.545a.55.55,0,1,0,0-1.1H23.7a.55.55,0,0,0,0,1.1Z" transform="translate(-4.178)"/><path class="a" d="M18.048,5.493h2.191a.55.55,0,0,0,.55-.55V.55a.55.55,0,0,0-.55-.55H18.048a.55.55,0,0,0-.55.55V4.942A.55.55,0,0,0,18.048,5.493ZM18.6,1.1h1.09V4.392H18.6Z" transform="translate(-2.773)"/><path class="a" d="M33.108,34.269H30.827V9.816a2.038,2.038,0,0,0,1.488-1.959,1.267,1.267,0,0,0-1.266-1.264h-.222V4.942a.55.55,0,0,0-.55-.55H28.71V.55a.55.55,0,1,0-1.1,0V4.942a.55.55,0,0,0,.55.55h1.567v1.1h-18.3V3.3h1.09V4.942a.55.55,0,1,0,1.1,0V.55a.55.55,0,0,0-1.1,0V2.2h-1.09V.55a.55.55,0,1,0-1.1,0V6.593H10.1A1.267,1.267,0,0,0,8.834,7.858a2.038,2.038,0,0,0,1.488,1.959V34.268H7.616a1.268,1.268,0,0,0-1.268,1.264,2.04,2.04,0,0,0,2.042,2.034H32.334a2.04,2.04,0,0,0,2.042-2.034A1.268,1.268,0,0,0,33.108,34.269Zm-.774,2.2H8.389a.938.938,0,0,1-.941-.933.166.166,0,0,1,.167-.164h17.73a.55.55,0,1,0,0-1.1H22.593V24.75a.55.55,0,0,0-.55-.55H19.108a.55.55,0,0,0-.55.55v9.519H11.423V9.9h2.009a.55.55,0,0,0,0-1.1H10.873V8.791a.937.937,0,0,1-.938-.933.165.165,0,0,1,.166-.164H31.049a.165.165,0,0,1,.166.164.937.937,0,0,1-.938.933V8.8H16.01a.55.55,0,1,0,0,1.1H29.727V34.269H27.911a.55.55,0,0,0,0,1.1h5.2a.166.166,0,0,1,.167.164.938.938,0,0,1-.941.933ZM21.492,26.4H19.658V25.3h1.834Zm-1.834,1.1h1.834v6.767H19.658Z" transform="translate(0 0)"/><path class="a" d="M18.055,14.653H15.12a.55.55,0,0,0-.55.55v4.4a.55.55,0,0,0,.55.55h2.935a.55.55,0,0,0,.55-.55V15.2A.55.55,0,0,0,18.055,14.653Zm-.55,1.1v1.1H15.67v-1.1Zm-1.834,3.3v-1.1H17.5v1.1Z" transform="translate(-2.044 -3.644)"/><path class="a" d="M18.055,23.426H15.12a.55.55,0,0,0-.55.55v4.4a.55.55,0,0,0,.55.55h2.935a.55.55,0,0,0,.55-.55v-4.4A.55.55,0,0,0,18.055,23.426Zm-.55,1.1v1.1H15.67v-1.1Zm-1.834,3.3v-1.1H17.5v1.1Z" transform="translate(-2.044 -5.825)"/><path class="a" d="M18.055,32.209H15.12a.55.55,0,0,0-.55.55v6.734a.55.55,0,0,0,.55.55h2.935a.55.55,0,0,0,.55-.55V32.759a.55.55,0,0,0-.55-.55Zm-.55,1.1v1.1H15.67v-1.1ZM15.67,38.943V35.51H17.5v3.433Z" transform="translate(-2.044 -8.009)"/><path class="a" d="M26.083,14.653H23.148a.55.55,0,0,0-.55.55v4.4a.55.55,0,0,0,.55.55h2.935a.55.55,0,0,0,.55-.55V15.2A.55.55,0,0,0,26.083,14.653Zm-.55,1.1v1.1H23.7v-1.1Zm-1.834,3.3v-1.1h1.834v1.1Z" transform="translate(-4.041 -3.644)"/><path class="a" d="M26.083,23.426H23.148a.55.55,0,0,0-.55.55v4.4a.55.55,0,0,0,.55.55h2.935a.55.55,0,0,0,.55-.55v-4.4A.55.55,0,0,0,26.083,23.426Zm-.55,1.1v1.1H23.7v-1.1Zm-1.834,3.3v-1.1h1.834v1.1Z" transform="translate(-4.041 -5.825)"/><path class="a" d="M31.205,20.156H34.14a.55.55,0,0,0,.55-.55V15.2a.55.55,0,0,0-.55-.55H31.205a.55.55,0,0,0-.55.55v4.4A.55.55,0,0,0,31.205,20.156Zm.55-1.1v-1.1H33.59v1.1Zm1.834-3.3v1.1H31.755v-1.1Z" transform="translate(-6.044 -3.644)"/><path class="a" d="M31.205,28.929H34.14a.55.55,0,0,0,.55-.55v-4.4a.55.55,0,0,0-.55-.55H31.205a.55.55,0,0,0-.55.55v4.4A.55.55,0,0,0,31.205,28.929Zm.55-1.1v-1.1H33.59v1.1Zm1.834-3.3v1.1H31.755v-1.1Z" transform="translate(-6.044 -5.825)"/><path class="a" d="M34.69,39.493V32.759a.55.55,0,0,0-.55-.55H31.205a.55.55,0,0,0-.55.55v6.734a.55.55,0,0,0,.55.55H34.14A.55.55,0,0,0,34.69,39.493Zm-1.1-6.184v1.1H31.755v-1.1Zm-1.834,5.634V35.51H33.59v3.433Z" transform="translate(-6.044 -8.009)"/></g></svg>