<svg xmlns="http://www.w3.org/2000/svg" width="14" height="11" viewBox="0 0 14 11"><defs><style>.a{fill:#c53f3f;}</style></defs><path class="a" d="M13.611,11H.389A.392.392,0,0,1,0,10.607V9.822a.392.392,0,0,1,.389-.393H13.611A.392.392,0,0,1,14,9.822v.786A.392.392,0,0,1,13.611,11Zm0-4.715H.389A.392.392,0,0,1,0,5.893V5.107a.391.391,0,0,1,.389-.392H13.611A.391.391,0,0,1,14,5.107v.786A.392.392,0,0,1,13.611,6.286Zm0-4.715H.389A.391.391,0,0,1,0,1.179V.393A.392.392,0,0,1,.389,0H13.611A.392.392,0,0,1,14,.393v.786A.391.391,0,0,1,13.611,1.571Z"/></svg>