<?xml version="1.0"?>
<svg xmlns="http://www.w3.org/2000/svg" xmlns:xlink="http://www.w3.org/1999/xlink" xmlns:svgjs="http://svgjs.com/svgjs" version="1.1" width="512" height="512" x="0" y="0" viewBox="0 0 512 512" style="enable-background:new 0 0 512 512" xml:space="preserve" class=""><g><g xmlns="http://www.w3.org/2000/svg"><circle cx="256" cy="256" r="75.25" fill="#024b74" data-original="#000000" style="" class=""/><path d="m117.455 219.055 29.237 6.72c8.978-39.062 40.02-70.103 79.081-79.081l-6.72-29.237c-50.184 11.533-90.064 51.413-101.598 101.598z" fill="#024b74" data-original="#000000" style="" class=""/><path d="m58.735 205.504 29.237 6.72c14.106-61.373 62.877-110.144 124.25-124.25l-6.72-29.237c-35.711 8.208-68.355 26.314-94.404 52.363s-44.155 58.693-52.363 94.404z" fill="#024b74" data-original="#000000" style="" class=""/><path d="m198.733 29.239-6.712-29.239c-46.726 10.725-89.44 34.41-123.525 68.495s-57.77 76.798-68.496 123.524l29.239 6.712c19.223-83.741 85.754-150.27 169.494-169.492z" fill="#024b74" data-original="#000000" style="" class=""/><path d="m394.543 292.946-29.237-6.72c-8.978 39.062-40.019 70.103-79.081 79.081l6.72 29.237c50.185-11.533 90.065-51.413 101.598-101.598z" fill="#024b74" data-original="#000000" style="" class=""/><path d="m453.264 306.497-29.237-6.72c-14.106 61.373-62.877 110.144-124.25 124.25l6.72 29.237c35.711-8.208 68.355-26.314 94.404-52.363s44.155-58.693 52.363-94.404z" fill="#024b74" data-original="#000000" style="" class=""/><path d="m313.27 482.761 6.711 29.239c46.726-10.726 89.439-34.412 123.524-68.497s57.77-76.799 68.495-123.525l-29.239-6.712c-19.222 83.741-85.751 150.272-169.491 169.495z" fill="#024b74" data-original="#000000" style="" class=""/><path d="m146.693 286.227-29.237 6.72c11.534 50.185 51.414 90.064 101.599 101.599l6.72-29.237c-39.062-8.979-70.104-40.021-79.082-79.082z" fill="#024b74" data-original="#000000" style="" class=""/><path d="m87.974 299.777-29.237 6.72c8.208 35.711 26.314 68.355 52.363 94.404 26.048 26.049 58.693 44.156 94.404 52.363l6.72-29.237c-61.374-14.106-110.144-62.877-124.25-124.25z" fill="#024b74" data-original="#000000" style="" class=""/><path d="m29.239 313.267-29.239 6.712c10.725 46.726 34.41 89.44 68.495 123.525 34.084 34.085 76.798 57.771 123.523 68.497l6.712-29.239c-83.74-19.224-150.269-85.755-169.491-169.495z" fill="#024b74" data-original="#000000" style="" class=""/><path d="m365.307 225.774 29.237-6.72c-11.534-50.185-51.414-90.064-101.598-101.598l-6.72 29.237c39.063 8.979 70.103 40.019 79.081 79.081z" fill="#024b74" data-original="#000000" style="" class=""/><path d="m424.027 212.224 29.237-6.72c-8.208-35.711-26.314-68.355-52.363-94.404s-58.693-44.156-94.404-52.363l-6.72 29.237c61.373 14.106 110.144 62.877 124.25 124.25z" fill="#024b74" data-original="#000000" style="" class=""/><path d="m482.761 198.73 29.239-6.711c-10.726-46.726-34.412-89.439-68.497-123.524s-76.799-57.77-123.524-68.495l-6.712 29.239c83.74 19.222 150.27 85.751 169.494 169.491z" fill="#024b74" data-original="#000000" style="" class=""/></g></g></svg>
