<svg xmlns="http://www.w3.org/2000/svg" xmlns:xlink="http://www.w3.org/1999/xlink" width="17" height="17" viewBox="0 0 17 17"><defs><style>.a{fill:#024b74;}.b{clip-path:url(#a);}</style><clipPath id="a"><rect class="a" width="17" height="17" transform="translate(173 328)"/></clipPath></defs><g class="b" transform="translate(-173 -328)"><g transform="translate(173 329.133)"><g transform="translate(0 0)"><path class="a" d="M16.707,10.162h-.283V9.312a1.416,1.416,0,0,0-.849-1.3V3.649a.283.283,0,0,0-.17-.259,1.121,1.121,0,0,0,.17-.59,1.133,1.133,0,0,0-2.265,0,1.121,1.121,0,0,0,.157.566H3.524A1.121,1.121,0,0,0,3.681,2.8a1.133,1.133,0,1,0-2.265,0,1.121,1.121,0,0,0,.17.59.283.283,0,0,0-.17.259V8.016a1.416,1.416,0,0,0-.849,1.3v.849H.283A.283.283,0,0,0,0,10.445v3.964a.283.283,0,0,0,.283.283H.566v1.416a.283.283,0,0,0,.283.283H1.982a.283.283,0,0,0,.283-.283V14.692H14.725v1.416a.283.283,0,0,0,.283.283H16.14a.283.283,0,0,0,.283-.283V14.692h.283a.283.283,0,0,0,.283-.283V10.445A.283.283,0,0,0,16.707,10.162ZM14.441,2.233a.566.566,0,1,1-.566.566A.566.566,0,0,1,14.441,2.233Zm-11.893,0a.566.566,0,1,1-.566.566A.566.566,0,0,1,2.548,2.233Zm-.566,1.7H15.008V7.9h-1.14a1.4,1.4,0,0,0,.291-.849V6.48a1.418,1.418,0,0,0-1.416-1.416H10.477A1.418,1.418,0,0,0,9.061,6.48v.566a1.4,1.4,0,0,0,.291.849H7.638a1.4,1.4,0,0,0,.291-.849V6.48A1.418,1.418,0,0,0,6.513,5.065H4.247A1.418,1.418,0,0,0,2.832,6.48v.566a1.4,1.4,0,0,0,.291.849H1.982ZM13.592,6.48v.566a.849.849,0,0,1-.849.849H10.477a.849.849,0,0,1-.849-.849V6.48a.849.849,0,0,1,.849-.849h2.265A.849.849,0,0,1,13.592,6.48Zm-6.23,0v.566a.849.849,0,0,1-.849.849H4.247A.849.849,0,0,1,3.4,7.047V6.48a.849.849,0,0,1,.849-.849H6.513A.849.849,0,0,1,7.362,6.48ZM1.133,9.312a.849.849,0,0,1,.849-.849H15.008a.849.849,0,0,1,.849.849v.849H1.133ZM1.7,15.825H1.133V14.692H1.7Zm14.158,0h-.566V14.692h.566Zm.566-1.7H.566v-3.4H16.424Z" transform="translate(0 -1.667)"/></g><g transform="translate(1.133 11.327)"><path class="a" d="M3.082,18.333H1.95a.283.283,0,0,0,0,.566H3.082a.283.283,0,0,0,0-.566Z" transform="translate(-1.667 -18.333)"/></g><g transform="translate(3.398 11.327)"><path class="a" d="M17.176,18.333H5.283a.283.283,0,0,0,0,.566H17.176a.283.283,0,0,0,0-.566Z" transform="translate(-5 -18.333)"/></g></g></g></svg>