<svg xmlns="http://www.w3.org/2000/svg" xmlns:xlink="http://www.w3.org/1999/xlink" width="30" height="30" viewBox="0 0 30 30"><defs><style>.a{fill:#024b74;}.b{clip-path:url(#a);}</style><clipPath id="a"><rect class="a" width="30" height="30" transform="translate(91 151)"/></clipPath></defs><g class="b" transform="translate(-91 -151)"><path class="a" d="M29.816,4.862a.5.5,0,0,0-.417-.1l-29,6a.5.5,0,0,0-.4.49v13.5a.5.5,0,0,0,.5.5h29a.5.5,0,0,0,.5-.5V5.25a.5.5,0,0,0-.184-.387ZM23,24.25H5v-1H23Zm-4.91-5.5a.5.5,0,0,0,.294-.1l1.092-.793c.212.122.421.253.624.394l1.01.7a.5.5,0,0,0,.239.087l1.2.115a.5.5,0,0,1,.453.5v.78l-.622.31H21.9a1.969,1.969,0,0,0-3.792,0h-3.15l.464-.732a.5.5,0,0,0,.078-.268v-1Zm-2.59-1v-1a8.344,8.344,0,0,1,2.313.384q.326.1.643.228l-.528.384Zm5.473,3.531A.969.969,0,1,1,20,20.312a.969.969,0,0,1,.969.969Zm-2.881.469a1.958,1.958,0,0,0,.2.5H9.964a1.954,1.954,0,0,0,.2-.5Zm-3.592-4H11.319a8.365,8.365,0,0,1,3.181-.962Zm0,1V19.6l-.726,1.145H10.147a1.969,1.969,0,0,0-3.792,0h-1.3a2.214,2.214,0,0,1,.563-1.038l.274-.284a2.24,2.24,0,0,1,1.6-.678ZM9.22,21.281a.969.969,0,1,1-.969-.969A.969.969,0,0,1,9.22,21.281ZM24,24.25v-1a1,1,0,0,0-1-1H21.717a1.958,1.958,0,0,0,.2-.5H22.5a.5.5,0,0,0,.223-.052l1-.5A.5.5,0,0,0,24,20.75V19.66a1.5,1.5,0,0,0-1.357-1.493l-1.069-.1-.9-.63a9.209,9.209,0,0,0-2.561-1.252,9.34,9.34,0,0,0-2.816-.433c-.1,0-.21,0-.316.005a9.379,9.379,0,0,0-5.064,1.684l-.446.31H7.49a3.247,3.247,0,0,0-2.315.983l-.276.286A3.206,3.206,0,0,0,4,21.25a.5.5,0,0,0,.5.5H6.339a1.958,1.958,0,0,0,.2.5H5a1,1,0,0,0-1,1v1H3v-9.5H27.337l-2.714,9.5Zm5,0H25.663l2.714-9.5H29Zm0-10.5H2.5a.5.5,0,0,0-.5.5v10H1V11.75H29Zm0-3H24.55L29,9.86Zm0-1.91-9.55,1.91H14.926L29,7.863Zm0-2L9.949,10.75H5.384L29,5.864Z" transform="translate(91 151)"/></g></svg>