<svg xmlns="http://www.w3.org/2000/svg" xmlns:xlink="http://www.w3.org/1999/xlink" width="20" height="20" viewBox="0 0 20 20"><defs><style>.a{fill:#024b74;}.b{clip-path:url(#a);}</style><clipPath id="a"><circle class="a" cx="10" cy="10" r="10" transform="translate(203 212)"/></clipPath></defs><g class="b" transform="translate(-203 -212)"><g transform="translate(203 212)"><path class="a" d="M8.961,19.589a1.461,1.461,0,1,1,1.461-1.461A1.463,1.463,0,0,1,8.961,19.589Zm0-2.192a.731.731,0,1,0,.731.731A.731.731,0,0,0,8.961,17.4Z" transform="translate(0 -1)"/><g transform="translate(-2 -1)"><path class="a" d="M14.794,19.589a1.461,1.461,0,1,1,1.461-1.461A1.463,1.463,0,0,1,14.794,19.589Zm0-2.192a.731.731,0,1,0,.731.731A.731.731,0,0,0,14.794,17.4Z"/></g><path class="a" d="M7.917,7.5H4.792a.417.417,0,0,1,0-.833H7.917a.417.417,0,0,1,0,.833Z"/><g transform="translate(0 1)"><path class="a" d="M14.994,15.108H7.858a1.961,1.961,0,0,1-1.885-1.426l-2.5-8.711a1.175,1.175,0,0,0-1.13-.854H.393a.393.393,0,1,1,0-.785H2.347A1.961,1.961,0,0,1,4.232,4.759l2.5,8.71a1.175,1.175,0,0,0,1.13.854h7.136a1.187,1.187,0,0,0,1.108-.779l.714-1.954a.393.393,0,0,1,.738.269l-.714,1.955a1.976,1.976,0,0,1-1.846,1.294Z"/></g><g transform="translate(9.08 4)"><path class="a" d="M13.96,9.24a.32.32,0,0,1-.128-.026C13.675,9.148,10,7.56,10,4.314V1.556a.331.331,0,0,1,.224-.313L13.854.017a.33.33,0,0,1,.211,0L17.7,1.243a.331.331,0,0,1,.224.313V4.314c0,3.246-3.675,4.834-3.832,4.9A.331.331,0,0,1,13.96,9.24Zm-3.3-7.447V4.314c0,2.5,2.676,3.932,3.3,4.233.623-.3,3.3-1.741,3.3-4.233V1.792L13.96.678Z" transform="translate(-10 0)"/></g><path class="a" d="M13.961,6.379h-.016a.292.292,0,0,1-.212-.109L12.564,4.809a.292.292,0,1,1,.456-.365l.964,1.206L15.8,3.835a.292.292,0,0,1,.413.413L14.167,6.294A.289.289,0,0,1,13.961,6.379Z" transform="translate(-1.099 3.49)"/></g></g></svg>