<svg xmlns="http://www.w3.org/2000/svg" xmlns:xlink="http://www.w3.org/1999/xlink" width="30" height="30" viewBox="0 0 30 30"><defs><style>.a{fill:#024b74;}.b{clip-path:url(#a);}</style><clipPath id="a"><rect class="a" width="30" height="30" transform="translate(302 516)"/></clipPath></defs><g class="b" transform="translate(-302 -516)"><g transform="translate(302 516)"><path class="a" d="M27.26,12.651,15,20.637,2.746,12.651.005,14.077l15,9.733,15-9.733Z"/><path class="a" d="M27.26,17.922,15,25.907,2.746,17.922.005,19.348l15,9.733,15-9.733Z"/><path class="a" d="M9.092,4,6.362,5.454l4.212,2.725,2.655-1.616Z"/><path class="a" d="M10.545,10.253l-4.274,2.6,2.951,1.923,4.158-2.69Z"/><path class="a" d="M14.9,7.6,12.212,9.238,15,11.041l2.672-1.729Z"/><path class="a" d="M19.322,10.335l-2.708,1.752,4.158,2.69,2.79-1.818Z"/><path class="a" d="M20.856,3.977l-4.269,2.6L19.3,8.255l4.33-2.8Z"/><path class="a" d="M15,13.133l-4.163,2.694L15,18.54l4.163-2.713Z"/><path class="a" d="M4.587,6.4,0,8.807l4.639,2.984,4.268-2.6Z"/><path class="a" d="M15,.918l-4.11,2.128,4.025,2.492,4.141-2.521Z"/><path class="a" d="M25.407,6.4,20.954,9.279,25.189,11.9l4.806-3.093Z"/></g></g></svg>