<svg xmlns="http://www.w3.org/2000/svg" xmlns:xlink="http://www.w3.org/1999/xlink" width="30" height="30" viewBox="0 0 30 30"><defs><style>.a{fill:#b1b1b1;}.b{clip-path:url(#a);}</style><clipPath id="a"><rect class="a" width="30" height="30" transform="translate(44 603)"/></clipPath></defs><g class="b" transform="translate(-44 -603)"><g transform="translate(44 603)"><path class="a" d="M14.8,6.723a.439.439,0,0,0-.217-.379L8.041.469a.956.956,0,0,0-1.28,0L4.787,2.241a.44.44,0,1,0,.588.655L7.349,1.124a.077.077,0,0,1,.1,0L13.2,6.283H1.6L3.321,4.74a.44.44,0,0,0-.588-.655L.217,6.344A.44.44,0,0,0,0,6.723V27.792S0,27.8,0,27.8s0,.007,0,.011v1.523a.44.44,0,0,0,.44.44H3.2a.44.44,0,0,0,.44-.44v-1.1h7.531v1.1a.44.44,0,0,0,.44.44h2.755a.44.44,0,0,0,.44-.44V27.814s0-.007,0-.011,0-.007,0-.011ZM11.19,12.387H3.612a.858.858,0,0,0-.857.857V27.352H.88V7.173H13.921V27.352H12.046V13.244A.858.858,0,0,0,11.19,12.387ZM2.755,28.9H.88v-.643H2.755Zm.88-15.629h7.531V27.352H3.636ZM13.921,28.9H12.046v-.643h1.875Z"/><path class="a" d="M30,6.723a.439.439,0,0,0-.217-.379L23.239.469a.956.956,0,0,0-1.28,0h0L15.416,6.344a.44.44,0,0,0-.217.379V27.792s0,.007,0,.011,0,.007,0,.011v1.523a.44.44,0,0,0,.44.44h2.755a.44.44,0,0,0,.44-.44v-1.1h7.531v1.1a.44.44,0,0,0,.44.44H29.56a.44.44,0,0,0,.44-.44V27.814s0-.007,0-.011,0-.007,0-.011Zm-7.453-5.6a.077.077,0,0,1,.1,0L28.4,6.283H16.8ZM17.954,28.9H16.079v-.643h1.875Zm11.166,0H27.245v-.643H29.12Zm0-1.545H27.245V18.434a.44.44,0,0,0-.88,0v8.918H18.834V13.267h7.531V15.7a.44.44,0,0,0,.88,0V13.244a.858.858,0,0,0-.857-.857H18.81a.858.858,0,0,0-.857.857V27.352H16.079V7.173H29.12Z"/></g></g></svg>