<svg xmlns="http://www.w3.org/2000/svg" xmlns:xlink="http://www.w3.org/1999/xlink" width="30" height="30" viewBox="0 0 30 30"><defs><style>.a{fill:#024b74;}.b{clip-path:url(#a);}</style><clipPath id="a"><rect class="a" width="30" height="30" transform="translate(130 603)"/></clipPath></defs><g class="b" transform="translate(-130 -603)"><g transform="translate(129.516 602.516)"><path class="a" d="M29.032,15.968v-4.54a1.917,1.917,0,0,0,.484-1.267,1.936,1.936,0,1,0-3.387,1.267v4.54H24.677V9.194h-.992A6.292,6.292,0,0,0,17.9,3.412V2.9a2.419,2.419,0,1,0-4.839,0v.509A6.292,6.292,0,0,0,7.283,9.194H6.29v6.774H4.839v-4.54a1.917,1.917,0,0,0,.484-1.267,1.936,1.936,0,1,0-3.387,1.267v4.54H.484V30.484h30V15.968Zm.484,1.935H21.437l-1.452-.968h9.531ZM21.774,29.516h-.968V27.581h.968Zm-1.935-2.9v2.9h-.968v-2.9h-2.9v2.9H15v-2.9H12.1v2.9h-.968v-2.9h-2.9v2.9H7.258V25.645H23.71v3.871h-.968v-2.9Zm-1.935,2.9h-.968V27.581H17.9Zm-3.871,0h-.968V27.581h.968Zm-3.871,0H9.194V27.581h.968Zm-2.9-8.71H23.71v3.871h-.968v-2.9h-2.9v2.9h-.968v-2.9h-2.9v2.9H15v-2.9H12.1v2.9h-.968v-2.9h-2.9v2.9H7.258Zm4.519-.968,3.706-2.379,3.7,2.379Zm10,4.839h-.968V22.742h.968Zm-3.871,0h-.968V22.742H17.9Zm-3.871,0h-.968V22.742h.968Zm-3.871,0H9.194V22.742h.968Zm10.817-4.839L15.484,16.31l-5.5,3.528H8.372L15.484,15.1,22.6,19.839Zm-6.946-5.806h-.968V12.1h.968ZM27.581,9.194a.968.968,0,1,1-.968.968A.969.969,0,0,1,27.581,9.194ZM27.1,12.028a1.738,1.738,0,0,0,.968,0v3.94H27.1Zm-4.38-2.835H19.812A6.544,6.544,0,0,0,17.22,4.355h.2A5.328,5.328,0,0,1,22.717,9.194ZM15.484,4.4a5.758,5.758,0,0,1,3.361,4.8H12.123A5.758,5.758,0,0,1,15.484,4.4Zm0-2.945A1.453,1.453,0,0,1,16.935,2.9v.484h-2.9V2.9A1.453,1.453,0,0,1,15.484,1.452Zm-1.935,2.9h.2a6.544,6.544,0,0,0-2.592,4.839H8.25A5.328,5.328,0,0,1,13.548,4.355Zm-6.29,5.806H23.71v5.806H18.534L17.082,15h1.789V11.129h-2.9v3.128l-.484-.323L15,14.257V11.129H12.1V15h1.789l-1.452.968H7.258Zm9.677,3.871V12.1H17.9v1.935ZM3.387,9.194a.968.968,0,1,1-.968.968A.969.969,0,0,1,3.387,9.194ZM2.9,12.028a1.906,1.906,0,0,0,.484.069,1.906,1.906,0,0,0,.484-.069v3.94H2.9Zm8.079,4.907L9.531,17.9H1.452v-.968ZM1.452,18.871H8.079L6.29,20.064v9.452H1.452ZM24.677,29.516V20.064l-1.789-1.193h6.628V29.516Z"/><path class="a" d="M25.645,23.71h2.9V19.839h-2.9Zm.968-2.9h.968v1.935h-.968Z"/><path class="a" d="M25.645,28.548h2.9V24.677h-2.9Zm.968-2.9h.968v1.935h-.968Z"/><path class="a" d="M2.419,19.839V23.71h2.9V19.839Zm1.935,2.9H3.387V20.806h.968Z"/><path class="a" d="M2.419,28.548h2.9V24.677h-2.9Zm.968-2.9h.968v1.935H3.387Z"/><path class="a" d="M22.742,11.129h-2.9V15h2.9Zm-.968,2.9h-.968V12.1h.968Z"/><path class="a" d="M8.226,15h2.9V11.129h-2.9Zm.968-2.9h.968v1.935H9.194Z"/></g></g></svg>