<svg xmlns="http://www.w3.org/2000/svg" xmlns:xlink="http://www.w3.org/1999/xlink" width="17" height="15" viewBox="0 0 17 15"><defs><style>.a{fill:#024b74;}.b{clip-path:url(#a);}</style><clipPath id="a"><rect class="a" width="17" height="15" transform="translate(79 92)"/></clipPath></defs><g class="b" transform="translate(-79 -92)"><g transform="translate(79 91)"><path class="a" d="M15.868,5.8H10.63L9.607,2.768a1.109,1.109,0,0,0-2.215,0L6.369,5.8H1.132A1.133,1.133,0,0,0,0,6.932v7.222a1.133,1.133,0,0,0,1.132,1.132H2.341a.308.308,0,1,0,0-.616H1.132a.516.516,0,0,1-.516-.516V6.932a.516.516,0,0,1,.516-.516H15.868a.516.516,0,0,1,.516.516v7.222a.516.516,0,0,1-.516.516H3.326a.308.308,0,1,0,0,.616H15.868A1.133,1.133,0,0,0,17,14.154V6.932A1.133,1.133,0,0,0,15.868,5.8ZM8.5,2.33a.493.493,0,1,1-.493.493A.493.493,0,0,1,8.5,2.33ZM7.02,5.8l.73-2.162a1.106,1.106,0,0,0,1.5,0L9.98,5.8Z"/><path class="a" d="M10.726,8.734a.308.308,0,0,0-.308.308V11L9.049,8.875a.308.308,0,0,0-.567.167v3a.308.308,0,1,0,.616,0V10.088l1.369,2.123a.308.308,0,0,0,.567-.167v-3A.308.308,0,0,0,10.726,8.734Z"/><path class="a" d="M3.883,10.832a1.1,1.1,0,0,0-.462-2.1H2.767a.308.308,0,0,0-.308.308v3a.308.308,0,0,0,.616,0v-1.11h.163l.68,1.257a.308.308,0,1,0,.542-.293Zm-.461-.514H3.075V9.35h.346a.484.484,0,0,1,0,.967Z"/><path class="a" d="M7.315,10.859a.308.308,0,1,0,0-.616H6.194V9.35h1.12a.308.308,0,1,0,0-.616H5.886a.308.308,0,0,0-.308.308v3a.308.308,0,0,0,.308.308H7.315a.308.308,0,1,0,0-.616H6.194v-.877h1.12Z"/><path class="a" d="M13.123,11.2a.308.308,0,0,0-.308.308v.535a.308.308,0,0,0,.616,0v-.535A.308.308,0,0,0,13.123,11.2Z"/><path class="a" d="M14.233,8.734H12.012a.308.308,0,1,0,0,.616h.8v1.337a.308.308,0,0,0,.616,0V9.35h.8a.308.308,0,1,0,0-.616Z"/></g></g></svg>