<svg xmlns="http://www.w3.org/2000/svg" xmlns:xlink="http://www.w3.org/1999/xlink" width="30" height="30" viewBox="0 0 30 30"><defs><style>.a{fill:#024b74;}.b{clip-path:url(#a);}</style><clipPath id="a"><rect class="a" width="30" height="30" transform="translate(181 360)"/></clipPath></defs><g class="b" transform="translate(-181 -360)"><g transform="translate(180.516 359.516)"><path class="a" d="M30,16.935h-.484V15.484A.484.484,0,0,0,29.032,15h-.484V9.677A1.452,1.452,0,0,0,27.1,8.226H20.323a1.452,1.452,0,0,0-1.452,1.452V15h-.484a.484.484,0,0,0-.484.484v1.452h-.968V12.581a.484.484,0,0,0-.484-.484H12.581a.484.484,0,0,0-.484.484v.484h-.484a1.452,1.452,0,0,0,0,2.9H12.1v.968H7.258V15.484A.484.484,0,0,0,6.774,15H6.29V13.548a.484.484,0,0,0-.484-.484H.968a.484.484,0,0,0-.484.484v1.935a.484.484,0,0,0,.484.484h.484v.968H.968a.484.484,0,0,0-.484.484v2.9a.484.484,0,0,0,.484.484H2.419V30a.484.484,0,0,0,.484.484h2.9A.484.484,0,0,0,6.29,30v-.484H24.677V30a.484.484,0,0,0,.484.484h2.9A.484.484,0,0,0,28.548,30V20.806H30a.484.484,0,0,0,.484-.484v-2.9A.484.484,0,0,0,30,16.935ZM19.839,9.677a.484.484,0,0,1,.484-.484H27.1a.484.484,0,0,1,.484.484V15H19.839Zm-.968,6.29h9.677v.968H18.871ZM11.613,15a.484.484,0,0,1,0-.968H12.1V15Zm1.452-1.935h2.9v3.871h-2.9Zm-11.613.968H5.323V15H1.452Zm.968,1.935H6.29v.968H2.419Zm.968,13.548v-8.71H5.323v8.71Zm2.9-.968V20.806H24.677v7.742Zm21.29.968H25.645v-8.71h1.935Zm1.935-9.677H1.452V17.9H29.516Z"/><path class="a" d="M23.71,10.161A1.935,1.935,0,1,0,25.645,12.1,1.935,1.935,0,0,0,23.71,10.161Zm0,2.9a.968.968,0,1,1,.968-.968A.968.968,0,0,1,23.71,13.065Z"/><path class="a" d="M13.35,9.194a.687.687,0,0,1,0,.968l-.629.624.687.687.624-.629a1.645,1.645,0,0,0,0-2.332l-.285-.285a.692.692,0,0,1-.2-.484V7.258h-.968v.484a1.626,1.626,0,0,0,.484,1.166Z"/><path class="a" d="M15.285,9.194a.687.687,0,0,1,0,.968l-.629.624.687.687.624-.629a1.645,1.645,0,0,0,0-2.332l-.285-.285a.692.692,0,0,1-.2-.484V7.258h-.968v.484A1.626,1.626,0,0,0,15,8.908Z"/><path class="a" d="M5.806,11.129A5.323,5.323,0,1,0,.484,5.806a5.323,5.323,0,0,0,5.323,5.323ZM2.419,3.092l.624.639.687-.687-.639-.624a4.3,4.3,0,0,1,2.231-.939v.939H6.29V1.481a4.3,4.3,0,0,1,2.231.939l-.639.624.687.687.624-.639a4.3,4.3,0,0,1,.939,2.231H9.194V6.29h.939a4.3,4.3,0,0,1-.939,2.231L8.56,7.882l-.687.687.648.624a4.3,4.3,0,0,1-2.231.939V9.194H5.323v.939a4.3,4.3,0,0,1-2.231-.939l.639-.634-.687-.677-.624.639A4.3,4.3,0,0,1,1.481,6.29h.939V5.323H1.481a4.3,4.3,0,0,1,.939-2.231Z"/><path class="a" d="M7.4,8.085,8.085,7.4l-1.8-1.79V3.387H5.323V5.806a.484.484,0,0,0,.14.344Z"/></g></g></svg>