<svg xmlns="http://www.w3.org/2000/svg" xmlns:xlink="http://www.w3.org/1999/xlink" width="17" height="17" viewBox="0 0 17 17"><defs><style>.a{fill:#024b74;}.b{clip-path:url(#a);}</style><clipPath id="a"><rect class="a" width="17" height="17" transform="translate(181 268)"/></clipPath></defs><g class="b" transform="translate(-181 -268)"><g transform="translate(181 268)"><path class="a" d="M12.412,10.491q-.4.641-.868,1.336c2.636.394,3.986,1.239,3.986,1.659,0,.56-2.392,1.871-7.03,1.871s-7.03-1.311-7.03-1.871c0-.42,1.35-1.264,3.987-1.659q-.471-.695-.868-1.336C1.986,10.981,0,11.99,0,13.485c0,2.194,4.276,3.342,8.5,3.342S17,15.679,17,13.485C17,11.99,15.014,10.981,12.412,10.491Z"/><path class="a" d="M8.519.173a4.99,4.99,0,0,0-4.99,4.989c0,1.977,2.567,5.759,4.019,7.74a1.2,1.2,0,0,0,1.942,0c1.452-1.981,4.019-5.763,4.019-7.74A4.99,4.99,0,0,0,8.519.173Zm0,8.087a2.953,2.953,0,1,1,2.952-2.952A2.956,2.956,0,0,1,8.519,8.261Z"/><path class="a" d="M8.519,3.512a1.8,1.8,0,1,0,1.8,1.8A1.8,1.8,0,0,0,8.519,3.512Z"/></g></g></svg>