<svg xmlns="http://www.w3.org/2000/svg" xmlns:xlink="http://www.w3.org/1999/xlink" width="27" height="27" viewBox="0 0 27 27"><defs><style>.a{fill:#024b74;}.b{clip-path:url(#a);}</style><clipPath id="a"><rect class="a" width="27" height="27" transform="translate(2139 828)"/></clipPath></defs><g class="b" transform="translate(-2139 -828)"><g transform="translate(2139 829.613)"><g transform="translate(0 0)"><path class="a" d="M3.93,25.865H2.017L3.37,24.512A4.578,4.578,0,0,0,4.677,21.8a10.31,10.31,0,0,1-4.04-4.777,9.356,9.356,0,0,1-.271-6,11.737,11.737,0,0,1,4.5-6.279,14.7,14.7,0,0,1,8.682-2.662A14.554,14.554,0,0,1,23.58,5.512a10.268,10.268,0,0,1,2.561,11.762,10.561,10.561,0,0,1-2.567,3.572A14.521,14.521,0,0,1,13.545,24.28,18.247,18.247,0,0,1,9.006,23.7,7.089,7.089,0,0,1,3.93,25.865ZM13.545,3.676c-6.553,0-10.574,3.908-11.652,7.781-1.019,3.66.483,7.118,4.017,9.251l.395.238-.012.461a6.241,6.241,0,0,1-.631,2.586,5.614,5.614,0,0,0,2.482-1.7l.335-.4.5.149a16.392,16.392,0,0,0,4.569.647c8.155,0,11.87-4.938,11.87-9.526a8.716,8.716,0,0,0-2.9-6.487,13.011,13.011,0,0,0-8.966-3.005Z" transform="translate(0 -2.091)"/></g></g></g></svg>