<svg xmlns="http://www.w3.org/2000/svg" xmlns:xlink="http://www.w3.org/1999/xlink" width="17" height="15" viewBox="0 0 17 15"><defs><style>.a{fill:#024b74;}.b{clip-path:url(#a);}</style><clipPath id="a"><rect class="a" width="17" height="15" transform="translate(235 116)"/></clipPath></defs><g class="b" transform="translate(-235 -116)"><g transform="translate(235.246 115.246)"><path class="a" d="M12.189,9.139H9.718a.6.6,0,0,0-.6.6v2.49H9.061a.5.5,0,0,0-.5.5v.623a.5.5,0,0,0,.5.5h3.784a.5.5,0,0,0,.5-.5v-.623a.5.5,0,0,0-.5-.5h-.061V9.735A.6.6,0,0,0,12.189,9.139Zm-.994.484h.994a.112.112,0,0,1,.112.112v.947H11.2Zm0,1.543H12.3v1.059H11.2ZM9.606,9.735a.112.112,0,0,1,.112-.112h.994v1.059H9.606V9.735Zm0,1.431h1.106v1.059H9.606V11.166Zm3.24,1.543a.014.014,0,0,1,.014.014v.623a.014.014,0,0,1-.014.014H9.061a.014.014,0,0,1-.014-.014v-.623a.014.014,0,0,1,.014-.014Z"/><path class="a" d="M15.906,5.635l-1.778-.691V2.6a.546.546,0,0,0,.47-.539V1.3a.546.546,0,0,0-.545-.545H10.558a.546.546,0,0,0-.545.545v.765a.546.546,0,0,0,.47.539v.924L8.859,2.9a1.668,1.668,0,0,0-1.211,0L2.78,4.789a.242.242,0,1,0,.175.451L7.824,3.348a1.186,1.186,0,0,1,.861,0l7.046,2.737a.458.458,0,0,1,.294.429v.917a.461.461,0,0,1-.627.429L8.6,5.22a.942.942,0,0,0-.684,0l-6.8,2.642a.461.461,0,0,1-.627-.429V6.515a.458.458,0,0,1,.294-.429l1.1-.426A.242.242,0,1,0,1.7,5.209L.6,5.635a.938.938,0,0,0-.6.88v.917a.944.944,0,0,0,1.286.88L1.57,8.2v6.582a.971.971,0,0,0,.97.97H13.969a.971.971,0,0,0,.97-.97v-.669a.242.242,0,1,0-.484,0v.669a.487.487,0,0,1-.486.486H7.749V10.057a.919.919,0,0,0-.918-.918H4.082a.919.919,0,0,0-.918.918V15.27H2.54a.487.487,0,0,1-.486-.486V8.014L8.087,5.671a.46.46,0,0,1,.334,0l6.034,2.344v4.955a.242.242,0,1,0,.484,0V8.2l.284.11a.944.944,0,0,0,1.286-.88V6.515A.938.938,0,0,0,15.906,5.635Zm-2.262-.879-2.678-1.04V2.61h2.678Zm.47-2.692a.062.062,0,0,1-.062.062H10.558a.062.062,0,0,1-.062-.062V1.3a.062.062,0,0,1,.062-.062h3.494a.062.062,0,0,1,.062.062ZM3.648,10.057a.434.434,0,0,1,.434-.434h2.75a.434.434,0,0,1,.434.434V15.27H3.648Z"/><circle class="a" cx="0.231" cy="0.231" r="0.231" transform="translate(4.085 12.216)"/></g></g></svg>