<svg xmlns="http://www.w3.org/2000/svg" xmlns:xlink="http://www.w3.org/1999/xlink" width="17" height="17" viewBox="0 0 17 17"><defs><style>.a{fill:#024b74;}.b{clip-path:url(#a);}</style><clipPath id="a"><rect class="a" width="17" height="17" transform="translate(186 218)"/></clipPath></defs><g class="b" transform="translate(-186 -218)"><g transform="translate(186 218)"><path class="a" d="M14.51,2.49A8.5,8.5,0,1,0,2.49,14.51,8.5,8.5,0,1,0,14.51,2.49ZM8.5,16.457A7.957,7.957,0,1,1,16.457,8.5,7.966,7.966,0,0,1,8.5,16.457Z"/><path class="a" d="M9.732,9.425a.271.271,0,0,0-.271.271v3.4a.271.271,0,0,0,.271.271,1.991,1.991,0,0,0,1.989-1.989V10.86A2.062,2.062,0,0,1,13.162,8.9a.271.271,0,0,0,.152-.4L10.779,4.323l0,0-.01-.015,0-.006-.015-.018,0,0-.015-.015-.007-.006-.012-.01L10.7,4.241l-.013-.008-.009-.005-.014-.007-.009,0-.015-.006-.008,0h0a6.754,6.754,0,0,0-1.2-.243.566.566,0,0,0-.353-.474A1.5,1.5,0,0,0,8.5,3.418a1.5,1.5,0,0,0-.574.071.566.566,0,0,0-.353.474,6.756,6.756,0,0,0-1.2.243h0l-.01,0-.013.005-.01,0-.012.006-.01.006L6.3,4.24l-.009.007-.011.008-.009.007-.013.013-.007.007L6.238,4.3l0,.007-.01.015,0,0L3.686,8.5a.271.271,0,0,0,.152.4A2.062,2.062,0,0,1,5.279,10.86v.516a1.991,1.991,0,0,0,1.989,1.989.271.271,0,0,0,.271-.271V9.7A.271.271,0,0,0,7,9.7v3.1a1.449,1.449,0,0,1-1.175-1.421V10.86a2.615,2.615,0,0,0-1.5-2.354L6.261,5.3c.085.832.225,2.081.361,2.671A1.782,1.782,0,0,0,8.229,9.3v2.056a.271.271,0,1,0,.543,0V9.3a1.782,1.782,0,0,0,1.607-1.324c.136-.59.277-1.838.361-2.671l1.943,3.2a2.615,2.615,0,0,0-1.5,2.354v.516A1.449,1.449,0,0,1,10,12.8V9.7A.271.271,0,0,0,9.732,9.425ZM7.727,4.492l.08.167v.326a.271.271,0,0,0,.543,0V4.6a.271.271,0,0,0-.027-.117L8.11,4.036A.109.109,0,0,1,8.12,4a1.061,1.061,0,0,1,.38-.037A1.068,1.068,0,0,1,8.879,4a.107.107,0,0,1,.011.039l-.213.445a.271.271,0,0,0-.027.117v.388a.271.271,0,1,0,.543,0V4.659l.08-.167a7.181,7.181,0,0,1,.983.173c-.019.206-.051.536-.091.913H6.835c-.04-.377-.072-.707-.092-.913A7.186,7.186,0,0,1,7.727,4.492Zm2.123,3.36a1.22,1.22,0,0,1-1.078.9v-.08a.271.271,0,0,0-.543,0v.08a1.22,1.22,0,0,1-1.078-.9c-.088-.38-.18-1.071-.256-1.732h3.21C10.029,6.781,9.937,7.472,9.849,7.852Z"/><path class="a" d="M8.5,1.953A6.547,6.547,0,0,0,1.978,7.934a.271.271,0,0,0,.541.046,6,6,0,1,1,0,1.039.271.271,0,0,0-.541.046A6.547,6.547,0,1,0,8.5,1.953Z"/></g></g></svg>