<svg xmlns="http://www.w3.org/2000/svg" xmlns:xlink="http://www.w3.org/1999/xlink" width="17" height="17" viewBox="0 0 17 17"><defs><style>.a{fill:#024b74;}.b{clip-path:url(#a);}</style><clipPath id="a"><rect class="a" width="17" height="17" transform="translate(121 328)"/></clipPath></defs><g class="b" transform="translate(-121 -328)"><g transform="translate(121 329.391)"><path class="a" d="M17.37,9.651H3.463V9.095a.278.278,0,0,0-.278-.278H2.906V7.982h.556V8.26a.278.278,0,0,0,.556,0V7.148a.278.278,0,0,0-.556,0v.278H2.906V4.088A1.114,1.114,0,0,1,4.019,2.976H5.132A1.114,1.114,0,0,1,6.244,4.088v.024A1.671,1.671,0,0,0,4.853,5.757a.278.278,0,0,0,.278.278H7.913a.278.278,0,0,0,.278-.278A1.671,1.671,0,0,0,6.8,4.112V4.088A1.671,1.671,0,0,0,5.132,2.419H4.019A1.671,1.671,0,0,0,2.35,4.088V8.817H2.072a.278.278,0,0,0-.278.278v.556H.681A.278.278,0,0,0,.4,9.929v.834a.278.278,0,0,0,.278.278h.834v3.338a1.671,1.671,0,0,0,1.391,1.645v.58a.278.278,0,0,0,.556,0v-.556H14.588V16.6a.278.278,0,1,0,.556,0v-.58a1.671,1.671,0,0,0,1.391-1.645V11.042h.834a.278.278,0,0,0,.278-.278V9.929A.278.278,0,0,0,17.37,9.651ZM6.522,4.644A1.115,1.115,0,0,1,7.6,5.479H5.445a1.115,1.115,0,0,1,1.077-.834ZM2.35,9.373h.556v.278H2.35Zm13.629,5.007a1.114,1.114,0,0,1-1.113,1.113H3.185a1.114,1.114,0,0,1-1.113-1.113V11.042H15.979Zm1.113-3.894H.96v-.278H17.092Z" transform="translate(-0.403 -2.419)"/><path class="a" d="M3.907,16.282H6.132a.278.278,0,0,0,0-.556H3.907a.278.278,0,1,0,0,.556Z" transform="translate(-1.404 -6.547)"/><path class="a" d="M8.343,16.282h.278a.278.278,0,0,0,0-.556H8.343a.278.278,0,1,0,0,.556Z" transform="translate(-2.78 -6.547)"/></g></g></svg>