<svg xmlns="http://www.w3.org/2000/svg" xmlns:xlink="http://www.w3.org/1999/xlink" width="30" height="30" viewBox="0 0 30 30"><defs><style>.a{fill:#024b74;}.b{clip-path:url(#a);}</style><clipPath id="a"><rect class="a" width="30" height="30" transform="translate(178 151)"/></clipPath></defs><g class="b" transform="translate(-178 -151)"><g transform="translate(177 150)"><path class="a" d="M20,26h6a.5.5,0,0,0,.5-.5V21a.5.5,0,0,0-.5-.5H20a.5.5,0,0,0-.5.5v4.5a.5.5,0,0,0,.5.5Zm.5-4.5h5V25h-5Z"/><path class="a" d="M12,20.5H6.021a.5.5,0,0,0-.5.5v4.5a.5.5,0,0,0,.5.5H12a.5.5,0,0,0,.5-.5V21a.5.5,0,0,0-.5-.5ZM11.5,25H6.521V21.5H11.5Z"/><path class="a" d="M29.5,28h-1V19.45a2.5,2.5,0,0,0,2-2.45V16a.5.5,0,0,0-.168-.373h0L26,11.775V8a1.5,1.5,0,0,0-1.5-1.5H21.21L21,3.958a.5.5,0,0,0-.5-.458H18v-1a1.5,1.5,0,0,0-2.5-1.117A1.5,1.5,0,0,0,13,2.5v1H11.5a.5.5,0,0,0-.5.458L10.79,6.5H7.5A1.5,1.5,0,0,0,6,8v3.775L1.668,15.626h0A.5.5,0,0,0,1.5,16v1a2.5,2.5,0,0,0,2,2.45V28h-1a1.5,1.5,0,0,0,0,3h27a1.5,1.5,0,1,0,0-3Zm0-11a1.5,1.5,0,1,1-3,0v-.5h3ZM6.69,12.5H7.6l-1.875,3H3.315Zm21.995,3H26.277l-1.875-3h.908Zm-5.462-3,1.875,3H22.441l-.375-3Zm-2.164,0,.375,3H18.5v-3Zm-3.559,3h-3v-3h3Zm-4,0H10.566l.375-3H13.5Zm-3.941,0H6.9l1.875-3H9.934ZM6.5,16.5h3V17a1.5,1.5,0,0,1-3,0Zm4,0h3V17a1.5,1.5,0,0,1-3,0Zm4,0h3V17a1.5,1.5,0,0,1-3,0Zm4,0h3V17a1.5,1.5,0,0,1-3,0Zm4,0h3V17a1.5,1.5,0,1,1-3,0Zm-2.46-12,.417,5h-2l-.417-5ZM16.5,2a.5.5,0,0,1,.5.5v1H16v-1a.5.5,0,0,1,.5-.5ZM14,2.5a.5.5,0,0,1,1,0v1H14Zm-2.04,2H13v1h1v-1h1v1h1v-1h1.04l.417,5H11.543ZM7,8a.5.5,0,0,1,.5-.5h3.207l-.2,2.458a.5.5,0,0,0,.5.542H21a.5.5,0,0,0,.5-.542l-.2-2.458H24.5A.5.5,0,0,1,25,8v3.5H7ZM2.5,17v-.5h3V17a1.5,1.5,0,0,1-3,0Zm2,2.45A2.5,2.5,0,0,0,6,18.5a2.5,2.5,0,0,0,4,0,2.5,2.5,0,0,0,4,0,2.5,2.5,0,0,0,4,0,2.5,2.5,0,0,0,4,0,2.5,2.5,0,0,0,4,0,2.5,2.5,0,0,0,1.5.951V28h-9V21a.5.5,0,0,0-.5-.5H14a.5.5,0,0,0-.5.5v7h-9ZM17.5,28h-3V21.5h3Zm12,2H2.5a.5.5,0,1,1,0-1h27a.5.5,0,1,1,0,1Z"/></g></g></svg>