<svg xmlns="http://www.w3.org/2000/svg" xmlns:xlink="http://www.w3.org/1999/xlink" width="35" height="35" viewBox="0 0 35 35"><defs><style>.a{fill:#707070;}.b{isolation:isolate;clip-path:url(#a);}.c{fill:#024b74;}.d{opacity:0.2;}.e{fill:#fff;}</style><clipPath id="a"><rect class="a" width="35" height="35" transform="translate(2208 828)"/></clipPath></defs><g class="b" transform="translate(-2208 -828)"><g transform="translate(2208 828)"><path class="c" d="M31.162,31.721c-5.356,4.372-22.078,4.372-27.325,0-5.356-4.372-4.809-23.062,0-27.98s22.515-4.918,27.325,0S36.518,27.349,31.162,31.721Z"/><g class="d"><path class="e" d="M17.609,24.07a25.591,25.591,0,0,1-15.192,5.9C-1.3,23.633-.534,8.222,3.838,3.741,7.772-.3,20.123-1.068,27.228,1.445,28.976,8.659,25.37,17.84,17.609,24.07Z"/></g><path class="e" d="M27.883,17.512a1.959,1.959,0,0,1-1.967,1.967H19.358v6.558a1.967,1.967,0,1,1-3.935,0V19.48H8.865a1.967,1.967,0,0,1,0-3.935h6.558V8.987a1.967,1.967,0,1,1,3.935,0v6.558h6.558A1.959,1.959,0,0,1,27.883,17.512Z"/></g></g></svg>