<svg xmlns="http://www.w3.org/2000/svg" xmlns:xlink="http://www.w3.org/1999/xlink" width="27" height="27" viewBox="0 0 27 27"><defs><style>.a{fill:#024b74;}.b{clip-path:url(#a);}</style><clipPath id="a"><rect class="a" width="27" height="27" transform="translate(2281 832)"/></clipPath></defs><g class="b" transform="translate(-2281 -832)"><path class="a" d="M24.221,6.329a3.149,3.149,0,1,0-3.622.519,2.236,2.236,0,0,0-.8,1.706v3.6h-1.35v-3.6a3.152,3.152,0,0,0-2.776-3.125,3.149,3.149,0,1,0-4.346,0A3.152,3.152,0,0,0,8.551,8.554v3.6H7.2v-3.6a2.236,2.236,0,0,0-.8-1.706,3.149,3.149,0,1,0-3.622-.519A3.152,3.152,0,0,0,0,9.454V16.2a3.149,3.149,0,0,0,1.8,2.841V27h.9V19.316c.148.021,3.149.036,3.149.036a.45.45,0,0,1,.45.45V27H9.9V18.452H13.05V26.1h-1.8V27h4.5v-.9h-1.8V18.452H17.1V27h3.6V19.8a.45.45,0,0,1,.45-.45s3-.015,3.149-.036V27h.9V19.043A3.149,3.149,0,0,0,27,16.2V9.454a3.152,3.152,0,0,0-2.776-3.125ZM19.8,4.055a2.25,2.25,0,1,1,2.25,2.25A2.25,2.25,0,0,1,19.8,4.055ZM14.459,6.3,13.5,7.744,12.541,6.3ZM11.25,3.155A2.25,2.25,0,1,1,13.5,5.4a2.25,2.25,0,0,1-2.25-2.25Zm-1.8,5.4a2.245,2.245,0,0,1,2.025-2.227L13.5,9.364l2.025-3.038a2.245,2.245,0,0,1,2.025,2.228v3.6h-1.8v2.7h-4.5v-2.7h-1.8ZM2.7,4.055A2.25,2.25,0,1,1,4.952,6.3,2.25,2.25,0,0,1,2.7,4.055ZM9,26.1H7.2V19.8a1.35,1.35,0,0,0-1.35-1.35h-2.7A2.252,2.252,0,0,1,.9,16.2V9.454A2.252,2.252,0,0,1,3.152,7.2h1.8A1.35,1.35,0,0,1,6.3,8.554v4.5h4.049v1.8h-5.4a.45.45,0,0,1-.45-.45V9H3.6v5.4a1.35,1.35,0,0,0,1.35,1.35h1.8A2.252,2.252,0,0,1,9,18Zm.864-8.548a3.143,3.143,0,0,0-.914-1.8h9.1a3.143,3.143,0,0,0-.914,1.8ZM26.1,16.2a2.252,2.252,0,0,1-2.25,2.25h-2.7A1.35,1.35,0,0,0,19.8,19.8v6.3H18V18a2.252,2.252,0,0,1,2.25-2.25h1.8A1.35,1.35,0,0,0,23.4,14.4V9h-.9v5.4a.45.45,0,0,1-.45.45h-5.4v-1.8H20.7v-4.5a1.35,1.35,0,0,1,1.35-1.35h1.8a2.252,2.252,0,0,1,2.25,2.25Zm0,0" transform="translate(2281 832)"/></g></svg>