<svg xmlns="http://www.w3.org/2000/svg" xmlns:xlink="http://www.w3.org/1999/xlink" width="30" height="30" viewBox="0 0 30 30"><defs><style>.a{fill:#024b74;}.b{clip-path:url(#a);}</style><clipPath id="a"><rect class="a" width="30" height="30" transform="translate(130 516)"/></clipPath></defs><g class="b" transform="translate(-130 -516)"><g transform="translate(129.516 515.516)"><path class="a" d="M3.871,14.032H7.742a.484.484,0,0,0,.484-.484v-2.9a.484.484,0,0,0-.484-.484H3.871a.484.484,0,0,0-.484.484v2.9A.484.484,0,0,0,3.871,14.032Zm3.387-.968H6.29V11.129h.968Zm-2.9-1.935h.968v1.935H4.355Z"/><path class="a" d="M9.677,14.032h3.871a.484.484,0,0,0,.484-.484v-2.9a.484.484,0,0,0-.484-.484H9.677a.484.484,0,0,0-.484.484v2.9A.484.484,0,0,0,9.677,14.032Zm3.387-.968H12.1V11.129h.968Zm-2.9-1.935h.968v1.935h-.968Z"/><path class="a" d="M30.139,15.5,15.968,11.253v-.608h3.387a1.936,1.936,0,0,0,.483-3.81c0-.02,0-.041,0-.061A2.416,2.416,0,0,0,15.2,5.822a2.4,2.4,0,0,0-.738.214L9.052.626a.483.483,0,0,0-.684,0L1.593,7.4a.482.482,0,0,0-.142.342V27.581H.968a.484.484,0,0,0-.484.484V30a.484.484,0,0,0,.484.484H30A.484.484,0,0,0,30.484,30V28.064A.484.484,0,0,0,30,27.581h-.484V18.747l.345.1a.483.483,0,0,0,.623-.464V15.968A.484.484,0,0,0,30.139,15.5ZM15,8.226V15H2.419V8.226ZM15,17.9h-.968V15.968H15ZM5.323,15.968V17.9H4.355V15.968Zm.968,0h.968V17.9H6.29Zm1.935,0h.968V17.9H8.226Zm1.935,0h.968V17.9h-.968Zm1.935,0h.968V17.9H12.1Zm-8.71,0V17.9H2.419V15.968ZM15,18.871v.968H2.419v-.968Zm.452-12.1c.016,0,.061.007.077.008a.467.467,0,0,0,.489-.364,1.445,1.445,0,1,1,2.8.725.483.483,0,0,0,.09.426.469.469,0,0,0,.4.18.136.136,0,0,0,.052-.007.968.968,0,0,1,0,1.935H15.968V7.742a.482.482,0,0,0-.142-.342l-.6-.6a1.287,1.287,0,0,1,.229-.024ZM8.71,1.652l5.606,5.606H3.1ZM2.419,20.806H15v6.774H12.1V23.226a.484.484,0,0,0-.484-.484H5.806a.484.484,0,0,0-.484.484v4.355h-2.9ZM6.29,27.581V23.71H8.226v3.871Zm2.9-3.871h1.935v3.871H9.194Zm20.322,5.806H1.452v-.968H29.516Zm-2.9-7.742H17.9v-.968h8.71Zm-8.71.968h8.71v.968H17.9Zm0,1.935h8.71v2.9H17.9Zm10.645,2.9h-.968V20.322a.484.484,0,0,0-.484-.484H17.419a.484.484,0,0,0-.484.484v7.258h-.968v-12.9l12.581,3.774Zm.968-9.844L15.968,13.672V12.263l13.548,4.064Z"/><path class="a" d="M24.193,6.774h3.871a2.419,2.419,0,0,0,.283-4.822A2.415,2.415,0,0,0,23.71,2.9c0,.02,0,.041,0,.061a1.936,1.936,0,0,0,.483,3.81Zm-.03-2.9c.016,0,.065.008.081.008a.465.465,0,0,0,.4-.18.483.483,0,0,0,.09-.426,1.445,1.445,0,1,1,2.8-.725.483.483,0,0,0,.489.364c.026,0,.052,0,.046-.006a1.452,1.452,0,0,1,0,2.9H24.193a.969.969,0,0,1-.03-1.937Z"/></g></g></svg>