<svg xmlns="http://www.w3.org/2000/svg" xmlns:xlink="http://www.w3.org/1999/xlink" width="30" height="30" viewBox="0 0 30 30"><defs><style>.a{fill:#024b74;}.b{clip-path:url(#a);}</style><clipPath id="a"><rect class="a" width="30" height="30" transform="translate(302 603)"/></clipPath></defs><g class="b" transform="translate(-302 -603)"><g transform="translate(302 603)"><path class="a" d="M29.681,12.191,15.46,1.779a.779.779,0,0,0-.921,0L.319,12.191a.779.779,0,0,0,.921,1.258L15,3.374,28.76,13.449a.779.779,0,0,0,.921-1.258Z"/><path class="a" d="M25.913,13.626a.78.78,0,0,0-.779.779V26.812H18.9V20.04a3.9,3.9,0,1,0-7.8,0v6.773H4.867V14.405a.779.779,0,0,0-1.559,0V27.592a.78.78,0,0,0,.779.779h7.795a.779.779,0,0,0,.776-.719.588.588,0,0,0,0-.061V20.04a2.339,2.339,0,0,1,4.677,0v7.552a.572.572,0,0,0,0,.06.779.779,0,0,0,.776.719h7.795a.779.779,0,0,0,.779-.779V14.405A.78.78,0,0,0,25.913,13.626Z"/></g></g></svg>