<svg xmlns="http://www.w3.org/2000/svg" xmlns:xlink="http://www.w3.org/1999/xlink" width="27" height="27" viewBox="0 0 27 27"><defs><style>.a{fill:#024b74;}.b{clip-path:url(#a);}</style><clipPath id="a"><rect class="a" width="27" height="27" transform="translate(2070 828)"/></clipPath></defs><g class="b" transform="translate(-2070 -828)"><g transform="translate(2072.237 828)"><path class="a" d="M12.453,13.006a6.293,6.293,0,0,0,4.6-1.905,6.293,6.293,0,0,0,1.905-4.6,6.293,6.293,0,0,0-1.905-4.6,6.294,6.294,0,0,0-4.6-1.9,6.292,6.292,0,0,0-4.6,1.905A6.293,6.293,0,0,0,5.949,6.5a6.293,6.293,0,0,0,1.905,4.6A6.3,6.3,0,0,0,12.453,13.006ZM8.974,3.024a4.7,4.7,0,0,1,3.479-1.442,4.7,4.7,0,0,1,3.479,1.442A4.7,4.7,0,0,1,17.374,6.5a4.7,4.7,0,0,1-1.442,3.479,4.7,4.7,0,0,1-3.479,1.442A4.7,4.7,0,0,1,8.974,9.982,4.7,4.7,0,0,1,7.532,6.5,4.7,4.7,0,0,1,8.974,3.024Zm0,0" transform="translate(-1.36 0)"/><path class="a" d="M22.472,24.626a16.063,16.063,0,0,0-.219-1.706,13.442,13.442,0,0,0-.42-1.715,8.473,8.473,0,0,0-.705-1.6,6.03,6.03,0,0,0-1.063-1.386,4.688,4.688,0,0,0-1.527-.96,5.279,5.279,0,0,0-1.95-.353,1.979,1.979,0,0,0-1.057.448c-.317.207-.687.446-1.1.71A6.309,6.309,0,0,1,13,18.692a5.532,5.532,0,0,1-3.485,0A6.29,6.29,0,0,1,8.1,18.065c-.41-.262-.781-.5-1.1-.71a1.977,1.977,0,0,0-1.057-.448,5.272,5.272,0,0,0-1.95.353,4.684,4.684,0,0,0-1.528.96A6.032,6.032,0,0,0,1.4,19.6a8.489,8.489,0,0,0-.705,1.6A13.474,13.474,0,0,0,.273,22.92a15.953,15.953,0,0,0-.219,1.707C.018,25.142,0,25.679,0,26.221a4.483,4.483,0,0,0,1.332,3.392,4.793,4.793,0,0,0,3.431,1.251h13a4.793,4.793,0,0,0,3.431-1.251,4.482,4.482,0,0,0,1.332-3.392c0-.544-.019-1.081-.055-1.595ZM20.1,28.467a3.227,3.227,0,0,1-2.34.816h-13a3.227,3.227,0,0,1-2.34-.815,2.928,2.928,0,0,1-.84-2.246c0-.506.017-1.005.05-1.485a14.389,14.389,0,0,1,.2-1.537A11.883,11.883,0,0,1,2.2,21.687a6.911,6.911,0,0,1,.574-1.3,4.471,4.471,0,0,1,.781-1.024,3.11,3.11,0,0,1,1.016-.632,3.641,3.641,0,0,1,1.246-.24c.055.029.154.086.314.19.325.212.7.454,1.115.719a7.839,7.839,0,0,0,1.788.8,7.113,7.113,0,0,0,4.458,0,7.848,7.848,0,0,0,1.789-.8c.424-.271.789-.506,1.114-.718.16-.1.259-.16.314-.19a3.643,3.643,0,0,1,1.246.24,3.115,3.115,0,0,1,1.016.632,4.459,4.459,0,0,1,.781,1.024,6.888,6.888,0,0,1,.574,1.3A11.855,11.855,0,0,1,20.7,23.2a14.51,14.51,0,0,1,.2,1.537h0c.034.478.05.977.051,1.484a2.927,2.927,0,0,1-.84,2.246Zm0,0" transform="translate(0 -3.864)"/></g></g></svg>