<svg xmlns="http://www.w3.org/2000/svg" xmlns:xlink="http://www.w3.org/1999/xlink" width="30" height="30" viewBox="0 0 30 30"><defs><style>.a{fill:#024b74;}.b{clip-path:url(#a);}</style><clipPath id="a"><rect class="a" width="30" height="30" transform="translate(216 603)"/></clipPath></defs><g class="b" transform="translate(-216 -603)"><g transform="translate(216 603)"><path class="a" d="M29.5,29h-3V12.5A.5.5,0,0,0,26,12H19V.5a.5.5,0,0,0-.5-.5H5.5A.5.5,0,0,0,5,.5V29H.5a.5.5,0,0,0,0,1h29a.5.5,0,0,0,0-1Zm-19,0h-2V24.5A.5.5,0,0,1,9,24h1a.5.5,0,0,1,.5.5Zm2-16.5V29h-1V24.5A1.5,1.5,0,0,0,10,23H9a1.5,1.5,0,0,0-1.5,1.5V29H6V1H18V12H13A.5.5,0,0,0,12.5,12.5ZM25.5,29h-12V13h12Z"/><path class="a" d="M16,7H13a.5.5,0,0,0-.5.5v3a.5.5,0,0,0,.5.5h3a.5.5,0,0,0,.5-.5v-3A.5.5,0,0,0,16,7Zm-.5,3h-2V8h2Z"/><path class="a" d="M16,2H13a.5.5,0,0,0-.5.5v3A.5.5,0,0,0,13,6h3a.5.5,0,0,0,.5-.5v-3A.5.5,0,0,0,16,2Zm-.5,3h-2V3h2Z"/><path class="a" d="M11,7H8a.5.5,0,0,0-.5.5v3A.5.5,0,0,0,8,11h3a.5.5,0,0,0,.5-.5v-3A.5.5,0,0,0,11,7Zm-.5,3h-2V8h2Z"/><path class="a" d="M11,2H8a.5.5,0,0,0-.5.5v3A.5.5,0,0,0,8,6h3a.5.5,0,0,0,.5-.5v-3A.5.5,0,0,0,11,2Zm-.5,3h-2V3h2Z"/><path class="a" d="M11,12H8a.5.5,0,0,0-.5.5v3A.5.5,0,0,0,8,16h3a.5.5,0,0,0,.5-.5v-3A.5.5,0,0,0,11,12Zm-.5,3h-2V13h2Z"/><path class="a" d="M11,17H8a.5.5,0,0,0-.5.5v3A.5.5,0,0,0,8,21h3a.5.5,0,0,0,.5-.5v-3A.5.5,0,0,0,11,17Zm-.5,3h-2V18h2Z"/><path class="a" d="M20.5,23h3a.5.5,0,0,0,.5-.5v-3a.5.5,0,0,0-.5-.5h-3a.5.5,0,0,0-.5.5v3A.5.5,0,0,0,20.5,23Zm.5-3h2v2H21Z"/><path class="a" d="M20.5,18h3a.5.5,0,0,0,.5-.5v-3a.5.5,0,0,0-.5-.5h-3a.5.5,0,0,0-.5.5v3A.5.5,0,0,0,20.5,18Zm.5-3h2v2H21Z"/><path class="a" d="M20.5,28h3a.5.5,0,0,0,.5-.5v-3a.5.5,0,0,0-.5-.5h-3a.5.5,0,0,0-.5.5v3A.5.5,0,0,0,20.5,28Zm.5-3h2v2H21Z"/><path class="a" d="M15.5,23h3a.5.5,0,0,0,.5-.5v-3a.5.5,0,0,0-.5-.5h-3a.5.5,0,0,0-.5.5v3A.5.5,0,0,0,15.5,23Zm.5-3h2v2H16Z"/><path class="a" d="M15.5,18h3a.5.5,0,0,0,.5-.5v-3a.5.5,0,0,0-.5-.5h-3a.5.5,0,0,0-.5.5v3A.5.5,0,0,0,15.5,18Zm.5-3h2v2H16Z"/><path class="a" d="M15.5,28h3a.5.5,0,0,0,.5-.5v-3a.5.5,0,0,0-.5-.5h-3a.5.5,0,0,0-.5.5v3A.5.5,0,0,0,15.5,28Zm.5-3h2v2H16Z"/></g></g></svg>