<svg xmlns="http://www.w3.org/2000/svg" xmlns:xlink="http://www.w3.org/1999/xlink" width="17" height="17" viewBox="0 0 17 17"><defs><style>.a{fill:#024b74;}.b{clip-path:url(#a);}</style><clipPath id="a"><rect class="a" width="17" height="17" transform="translate(173 295)"/></clipPath></defs><g class="b" transform="translate(-173 -295)"><path class="a" d="M16.17,13.058a1.627,1.627,0,0,1,0,2.3l0,0-1.112,1.1a.65.65,0,1,1-.914-.925l.651-.643H4.357a2.6,2.6,0,0,1-2.6-2.6V1.839l-.649.64a.65.65,0,0,1-.913-.926L1.292.469a1.639,1.639,0,0,1,2.293,0l1.1,1.084a.65.65,0,0,1-.913.926l-.714-.7V12.29a1.3,1.3,0,0,0,1.3,1.3h10.5l-.717-.708a.65.65,0,1,1,.914-.925l1.112,1.1,0,0ZM14.7,0H6.275a.65.65,0,1,0,0,1.3H14.7a.65.65,0,0,1,.65.65V10.4a.65.65,0,1,0,1.3,0V1.951A1.951,1.951,0,0,0,14.7,0ZM9.559,11.148a.65.65,0,0,0,.65-.65V7.6A1.787,1.787,0,0,0,7.283,6.225a1.785,1.785,0,0,0-1.837-.267.65.65,0,0,0-1.089.479V10.5a.65.65,0,0,0,1.3,0V7.6a.488.488,0,0,1,.975,0v2.9a.65.65,0,0,0,1.3,0V7.6a.488.488,0,0,1,.975,0V10.5A.65.65,0,0,0,9.559,11.148Zm2.95-7.637h-.02a1.5,1.5,0,0,0-1.5,1.5.65.65,0,1,0,1.3,0,.2.2,0,0,1,.2-.2h.02a.2.2,0,0,1,.2.188,3.155,3.155,0,0,1-.736,1.028c-.386.425-.766.771-.77.774a.65.65,0,0,0,.437,1.132h1.756a.65.65,0,0,0,0-1.3h-.224a2.742,2.742,0,0,0,.837-1.62,1.5,1.5,0,0,0-1.5-1.5Zm0,0" transform="translate(173 295)"/></g></svg>