<svg xmlns="http://www.w3.org/2000/svg" xmlns:xlink="http://www.w3.org/1999/xlink" version="1.1" x="0px" y="0px" viewBox="0 0 128 160" style="enable-background:new 0 0 128 128;" xml:space="preserve"><g><path d="M64.3,101c3.9-5.6,6.6-12,8.3-19.6c0.9-4.6,1.4-9.3,1.5-14.3v-1.8c0-1,0-2,0-3.3c0-1.5-0.7-1.9-2.2-2   c-9.9-0.6-18.6-2.8-26.3-6.6c-1.8-0.8-3.5-1.8-5.1-2.8l-1.2-0.7c-0.4-0.2-0.7-0.3-1-0.3c-0.3,0-0.6,0.2-1,0.3l-1.2,0.7   c-1.7,1-3.4,2-5.2,2.8c-7.7,3.8-16.4,6-26.3,6.6c-1.5,0.1-2.2,0.4-2.2,2c0,1.2,0,2.2,0,3.3V67c0.1,5.1,0.6,9.8,1.5,14.3   c1.7,7.6,4.4,14,8.3,19.6c5.8,8.3,14.2,14.8,25.1,19.4c0.1,0,0.4,0.1,0.9,0.1c0.5,0,0.8-0.1,0.9-0.1C50,115.8,58.5,109.3,64.3,101z    M56.6,78.8c-0.5,0.7-1.5,1.1-2.4,0.8c-0.2-0.1-0.4-0.2-0.6-0.3v12.5c0,0.1,0,0.1,0,0.2h1.3v2.3H21.6V92H23c0,0,0-0.1,0-0.2V79.3   c-0.2,0.1-0.4,0.2-0.6,0.3c-0.9,0.3-1.9-0.1-2.4-0.8c-0.2-0.3-0.3-0.6-0.3-1c0-0.6,0.4-1.2,0.9-1.6c0.4-0.3,0.8-0.7,1.3-1   c0.6-0.4,13.7-10.5,14.8-11.4c0.3-0.2,0.6-0.4,0.9-0.5c0,0,0,0,0,0c0.1,0,0.2,0,0.3-0.1c0.1,0,0.1,0,0.2,0c0.1,0,0.1,0,0.2,0   c0.1,0,0.1,0,0.2,0c0.1,0,0.1,0,0.2,0c0.1,0,0.2,0,0.3,0.1c0,0,0,0,0,0c0.3,0.1,0.6,0.3,1,0.5c1.8,1.4,3.7,2.8,5.5,4.2l1.2,0.9   l6.1,4.7c0.7,0.5,1.3,1,2,1.6c0.4,0.3,0.8,0.7,1.3,1c0.6,0.4,1,0.9,0.9,1.6C56.9,78.2,56.8,78.5,56.6,78.8z"/><path d="M123.4,35.7L100.1,9.7c-1.4-1.4-3.3-2.2-5.2-2.2H42.7c-5.2,0-9.4,4.2-9.4,9.4v29.7c0.1,0,0.2-0.1,0.3-0.1l1.7-1   c0.6-0.3,1.5-0.6,2.5-0.7l0.5-0.1l0.5,0c1.1,0.1,2,0.5,2.5,0.7l0.4,0.2l1.4,0.8V17.1h47.4v19c0,5.2,4.2,9.4,9.4,9.4H116v65.3H62.4   c-3.6,3.6-7.8,6.8-12.5,9.6h66.3c5.2,0,9.4-4.2,9.4-9.4V40.9C125.6,39,124.8,37.1,123.4,35.7z"/><path d="M79,65.6h26.4v-5.3H78.8c0.2,0.7,0.2,1.3,0.2,1.7c0,1.2,0,2.3,0,3.4V65.6z"/><path d="M77.7,80.9h27.7v-5.3H78.5C78.3,77.4,78.1,79.1,77.7,80.9z"/><path d="M72.8,96.2h32.7v-5.3H75C74.3,92.8,73.6,94.5,72.8,96.2z"/></g><text x="0" y="143" fill="#000000" font-size="5px" font-weight="bold" font-family="'Helvetica Neue', Helvetica, Arial-Unicode, Arial, Sans-serif">Created by Delwar Hossain</text><text x="0" y="148" fill="#000000" font-size="5px" font-weight="bold" font-family="'Helvetica Neue', Helvetica, Arial-Unicode, Arial, Sans-serif">from the Noun Project</text></svg>