<svg xmlns="http://www.w3.org/2000/svg" xmlns:xlink="http://www.w3.org/1999/xlink" version="1.1" x="0px" y="0px" viewBox="0 0 128 160" style="enable-background:new 0 0 128 128;" xml:space="preserve"><g><path d="M82.4,64.8C77,64.4,72.2,63.3,68,61.2c-1-0.4-1.9-1-2.8-1.5l-0.7-0.4c-0.2-0.1-0.4-0.2-0.6-0.2c-0.2,0-0.4,0.1-0.5,0.2   l-0.7,0.4c-0.9,0.5-1.9,1.1-2.8,1.5c-4.2,2.1-8.9,3.3-14.3,3.6c-0.8,0.1-1.2,0.2-1.2,1.1c0,0.7,0,1.2,0,1.8v1   c0.1,2.8,0.3,5.3,0.8,7.8c0.9,4.1,2.4,7.6,4.5,10.7c3.2,4.5,7.8,8.1,13.7,10.6c0.1,0,0.2,0.1,0.5,0.1c0.3,0,0.4-0.1,0.5-0.1   c5.9-2.5,10.5-6,13.7-10.6c2.1-3.1,3.6-6.6,4.5-10.7c0.5-2.5,0.8-5.1,0.8-7.8v-1c0-0.6,0-1.1,0-1.8C83.5,65,83.2,64.8,82.4,64.8z"/><path d="M122.1,55.6c-1.4-1.1-2.8-2.1-4.2-3.2c-2.2-1.7-4.4-3.4-6.6-5.1L91.4,32.1l-3.9-3c-6-4.6-12.1-9.3-18.1-13.9   c-1-0.8-2.1-1.3-3.1-1.7c0,0-0.1,0-0.1,0c-0.3-0.1-0.6-0.2-0.9-0.2c-0.2,0-0.4,0-0.6-0.1c-0.2,0-0.4,0-0.6,0c-0.2,0-0.4,0-0.7,0   c-0.2,0-0.4,0-0.6,0.1c-0.3,0.1-0.6,0.2-0.9,0.2c0,0-0.1,0-0.1,0c-1,0.3-2.1,0.9-3.1,1.7C55,17.9,11.9,51,10.1,52.4   c-1.4,1.1-2.8,2.1-4.2,3.2c-1.9,1.4-3.2,3.1-3,5.2c0,1.1,0.3,2.2,0.9,3.2c1.6,2.3,4.9,3.5,7.9,2.6c0.7-0.2,1.4-0.5,2-0.9v40.9   c0,0.2,0,0.4,0,0.6H9.4v7.6h109.3v-7.6h-4.4c0-0.2,0-0.4,0-0.6V65.8c0.6,0.4,1.3,0.7,2,0.9c3,0.9,6.3-0.3,7.9-2.6   c0.7-1,1-2,0.9-3.2C125.2,58.7,124,57.1,122.1,55.6z M22.5,107.2c0-0.2,0-0.4,0-0.6V74.3c0,0,0,0,0,0V59.8c0-0.2,0-0.4,0.1-0.7   c12.9-9.8,25.7-19.6,38.5-29.5l1.3-1c0.5-0.3,1-0.5,1.5-0.5c0.5,0,1,0.2,1.5,0.5l1.3,1c12.8,9.9,25.6,19.7,38.5,29.5   c0,0.2,0.1,0.4,0.1,0.7v14.6c0,0,0,0,0,0v32.3c0,0.2,0,0.4,0,0.6H22.5z"/></g><text x="0" y="143" fill="#000000" font-size="5px" font-weight="bold" font-family="'Helvetica Neue', Helvetica, Arial-Unicode, Arial, Sans-serif">Created by Delwar Hossain</text><text x="0" y="148" fill="#000000" font-size="5px" font-weight="bold" font-family="'Helvetica Neue', Helvetica, Arial-Unicode, Arial, Sans-serif">from the Noun Project</text></svg>