<svg xmlns="http://www.w3.org/2000/svg" xmlns:xlink="http://www.w3.org/1999/xlink" version="1.1" x="0px" y="0px" viewBox="0 0 128 160" style="enable-background:new 0 0 128 128;" xml:space="preserve"><path d="M123.8,25.5c0-2.6-1.1-3.1-3.6-3.3c-16.6-1.1-31-4.7-43.9-11.1c-2.9-1.3-5.8-3-8.6-4.6l-2-1.2c-0.6-0.3-1.1-0.5-1.7-0.5  c-0.5,0.1-1.1,0.3-1.7,0.5l-2,1.2c-2.8,1.6-5.7,3.3-8.6,4.6c-12.9,6.4-27.3,10-43.9,11.1c-2.4,0.2-3.6,0.7-3.6,3.3c0,2,0,3.7,0,5.4  v2.9c0.2,8.5,0.9,16.3,2.5,23.9C9.5,70.5,14,81.2,20.6,90.6c9.7,13.9,23.8,24.7,41.9,32.4c0.2,0,0.7,0.2,1.5,0.2  c0.8,0,1.3-0.2,1.6-0.2c18-7.7,32.2-18.5,41.9-32.4c6.6-9.4,11.1-20.1,13.9-32.7c1.5-7.6,2.4-15.5,2.5-23.9v-2.9  C123.9,29.2,123.9,27.5,123.8,25.5z M94.6,53.6c-0.8,1.2-2.5,1.8-4,1.3c-0.4-0.1-0.7-0.3-1-0.5v20.8c0,0.1,0,0.2,0,0.3h2.2v3.9H36.2  v-3.9h2.2c0-0.1,0-0.2,0-0.3V54.5c-0.3,0.2-0.7,0.3-1,0.5c-1.6,0.5-3.2-0.2-4-1.3c-0.3-0.5-0.5-1.1-0.5-1.6  c-0.1-1.1,0.6-1.9,1.5-2.7c0.7-0.5,1.4-1.1,2.1-1.6c0.9-0.7,22.9-17.6,24.7-19c0.5-0.4,1.1-0.7,1.6-0.8c0,0,0.1,0,0.1,0  c0.2,0,0.3-0.1,0.5-0.1c0.1,0,0.2,0,0.3,0c0.1,0,0.2,0,0.3,0c0.1,0,0.2,0,0.3,0c0.1,0,0.2,0,0.3,0c0.2,0,0.3,0.1,0.5,0.1  c0,0,0.1,0,0.1,0c0.5,0.2,1.1,0.4,1.6,0.8c3.1,2.4,6.1,4.7,9.2,7.1l2,1.5l10.1,7.8c1.1,0.9,2.2,1.7,3.4,2.6c0.7,0.5,1.4,1.1,2.1,1.6  c1,0.7,1.6,1.6,1.5,2.7C95.1,52.5,95,53.1,94.6,53.6z"/><text x="0" y="143" fill="#000000" font-size="5px" font-weight="bold" font-family="'Helvetica Neue', Helvetica, Arial-Unicode, Arial, Sans-serif">Created by Delwar Hossain</text><text x="0" y="148" fill="#000000" font-size="5px" font-weight="bold" font-family="'Helvetica Neue', Helvetica, Arial-Unicode, Arial, Sans-serif">from the Noun Project</text></svg>