<svg id="Layer_5" enable-background="new 0 0 64 64" height="512" viewBox="0 0 64 64" width="512" xmlns="http://www.w3.org/2000/svg"><g><path d="m60 33v-9.382c.615-.703 1-1.612 1-2.618 0-2.206-1.794-4-4-4s-4 1.794-4 4c0 1.005.385 1.914 1 2.618v9.382h-3v-14h-2.051c-.488-6.37-5.579-11.461-11.949-11.949v-1.051c0-2.757-2.243-5-5-5s-5 2.243-5 5v1.051c-6.37.488-11.461 5.579-11.949 11.949h-2.051v14h-3v-9.382c.615-.703 1-1.612 1-2.618 0-2.206-1.794-4-4-4s-4 1.794-4 4c0 1.005.385 1.914 1 2.618v9.382h-3v30h62v-30zm1 4h-16.697l-3-2h19.697zm-16 24h-2v-4h2zm-4-6v6h-2v-6h-6v6h-2v-6h-6v6h-2v-6h-6v6h-2v-8h34v8h-2v-6zm-4 6h-2v-4h2zm-8 0h-2v-4h2zm-8 0h-2v-4h2zm-6-18h34v8h-2v-6h-6v6h-2v-6h-6v6h-2v-6h-6v6h-2v-6h-6v6h-2zm9.34-2 7.66-4.916 7.656 4.916zm20.66 10h-2v-4h2zm-8 0h-2v-4h2zm-8 0h-2v-4h2zm-8 0h-2v-4h2zm22.356-10-11.356-7.292-11.364 7.292h-3.334l14.698-9.798 14.697 9.798zm-14.356-12h-2v-4h2zm28-10c1.103 0 2 .897 2 2s-.897 2-2 2-2-.897-2-2 .897-2 2-2zm-1 5.858c.322.084.653.142 1 .142s.678-.058 1-.142v8.142h-2zm-9.051-5.858h-6.005c-.33-5.038-3.051-8.208-5.356-10h.412c5.728 0 10.442 4.402 10.949 10zm-14.949-9.913c1.399.637 6.461 3.401 6.946 9.913h-13.892c.485-6.512 5.547-9.276 6.946-9.913zm0-6.087c1.654 0 3 1.346 3 3v1h-6v-1c0-1.654 1.346-3 3-3zm-4 6h.412c-2.305 1.792-5.026 4.962-5.356 10h-6.005c.507-5.598 5.221-10 10.949-10zm-13 12h34v12h-10.697l-3-2h3.697v-8h-6v6.465l-1-.667-1 .667v-6.465h-6v8h3.697l-3 2h-10.697zm20 8v-4h2v4zm-28-10c1.103 0 2 .897 2 2s-.897 2-2 2-2-.897-2-2 .897-2 2-2zm-1 5.858c.322.084.653.142 1 .142s.678-.058 1-.142v8.142h-2zm16.697 10.142-3 2h-16.697v-2zm-19.697 4h13.697l-3.697 2.465v19.535h-10zm48 22v-19.535l-3.697-2.465h13.697v22z"/><path d="m53 49h6v-8h-6zm2-6h2v4h-2z"/><path d="m53 59h6v-8h-6zm2-6h2v4h-2z"/><path d="m5 41v8h6v-8zm4 6h-2v-4h2z"/><path d="m5 59h6v-8h-6zm2-6h2v4h-2z"/><path d="m47 23h-6v8h6zm-2 6h-2v-4h2z"/><path d="m17 31h6v-8h-6zm2-6h2v4h-2z"/></g></svg>