<svg xmlns="http://www.w3.org/2000/svg" width="10.247" height="10.136" viewBox="0 0 10.247 10.136"><defs><style>.a{fill:#c53f3f;}</style></defs><path class="a" d="M10.673,2.268c0-.223-.094-.265-.308-.283a9.762,9.762,0,0,1-3.758-.95C6.358.924,6.11.778,5.87.641L5.7.539A.316.316,0,0,0,5.553.5a1.321,1.321,0,0,0-.146.043l-.171.1C5,.778,4.749.924,4.5,1.035a9.762,9.762,0,0,1-3.758.95c-.205.017-.308.06-.308.283v.711A11.107,11.107,0,0,0,.648,5.025a7.615,7.615,0,0,0,1.19,2.817,8.12,8.12,0,0,0,3.587,2.774.754.754,0,0,0,.128.017,1.134,1.134,0,0,0,.137-.017A8.168,8.168,0,0,0,9.277,7.841a7.655,7.655,0,0,0,1.19-2.8A11.186,11.186,0,0,0,10.681,3V2.747C10.681,2.585,10.681,2.439,10.673,2.268Zm-2.5,2.406a.3.3,0,0,1-.342.111.268.268,0,0,1-.086-.043V6.548h.188v.334H3.173V6.548h.188v-1.8c-.026.017-.06.026-.086.043a.313.313,0,0,1-.342-.111.261.261,0,0,1,.086-.368c.06-.043.12-.094.18-.137.077-.06,1.96-1.507,2.115-1.627a.344.344,0,0,1,.137-.068h.009c.017,0,.026-.009.043-.009h.1c.017,0,.026.009.043.009h.009a.513.513,0,0,1,.137.068l.788.608.171.128.865.668c.094.077.188.146.291.223.06.043.12.094.18.137a.254.254,0,0,1,.128.231A.209.209,0,0,1,8.173,4.674Z" transform="translate(-0.434 -0.496)"/></svg>