<svg xmlns="http://www.w3.org/2000/svg" width="16" height="16" viewBox="0 0 16 16"><defs><style>.a{fill:#024b74;}</style></defs><path class="a" d="M-2.19,15.81a.65.65,0,0,0,0-.918L-6.863,10.22a6.241,6.241,0,0,0,1.4-3.949A6.277,6.277,0,0,0-11.73,0,6.277,6.277,0,0,0-18,6.27a6.277,6.277,0,0,0,6.27,6.27,6.241,6.241,0,0,0,3.949-1.4l4.673,4.673a.648.648,0,0,0,.459.19A.648.648,0,0,0-2.19,15.81ZM-6.757,6.27a4.978,4.978,0,0,1-4.973,4.973A4.978,4.978,0,0,1-16.7,6.27,4.978,4.978,0,0,1-11.73,1.3,4.978,4.978,0,0,1-6.757,6.27Z" transform="translate(18)"/></svg>