<svg id="Capa_1" enable-background="new 0 0 512 512" height="512" viewBox="0 0 512 512" width="512" xmlns="http://www.w3.org/2000/svg"><g><g><path d="m498.339 182.289h-14.433c-7.533 0-13.661 6.128-13.661 13.661v34.994h-39.45v-34.994c0-7.545-6.117-13.661-13.661-13.661h-14.435c-7.544 0-13.66 6.116-13.66 13.66v12.465h-10.36v-40.721c5.135-.729 9.101-5.142 9.101-10.475v-22.727c0-3.024-1.281-5.749-3.32-7.681-2.226-34.571-29.249-62.495-63.431-66.106v-36.872c0-4.156-3.368-7.523-7.523-7.523s-7.523 3.368-7.523 7.523v36.872c-34.183 3.611-61.206 31.536-63.431 66.108-2.038 1.932-3.318 4.656-3.318 7.679v22.727c0 5.333 3.965 9.746 9.1 10.475v40.721h-74.585c-4.155 0-7.523 3.368-7.523 7.523 0 4.156 3.368 7.523 7.523 7.523h74.585v32.046h-143.428c-6.647 0-12.055-5.408-12.055-12.056v-7.935c0-6.648 5.408-12.055 12.055-12.055h22.362c4.155 0 7.523-3.368 7.523-7.523s-3.368-7.523-7.523-7.523h-22.362c-14.944 0-27.102 12.158-27.102 27.102v7.935c0 12.194 8.095 22.529 19.192 25.922l47.846 56.841h-31.682c-14.76 0-26.769 12.008-26.769 26.769v8.603c0 9.675 5.16 18.166 12.872 22.87l-40.581 45.206c-2.22 2.473-5.4 3.892-8.723 3.892h-23.191c-14.76-.003-26.768 12.005-26.768 26.766v8.603c0 14.761 12.008 26.769 26.768 26.769h47.457c7.506 0 14.712-3.18 19.772-8.724l37.26-40.826 52.646-57.79h31.911c14.76 0 26.768-12.008 26.768-26.768v-8.603c0-12.578-8.721-23.15-20.432-26.004l-47.495-56.424h73.676v122.646 88.423c-.001 7.423 6.218 13.659 13.662 13.659h103.023c7.49 0 13.661-6.356 13.661-13.662 0-.177 0-88.42 0-88.42v-124.677h10.36v29.864c0 4.232 3.493 7.647 7.754 7.52 4.118-.123 7.293-3.715 7.293-7.835v-100.736h11.663v282.899h-11.663v-134.98c0-4.232-3.493-7.647-7.754-7.52-4.118.123-7.293 3.715-7.293 7.835v136.05c0 7.545 6.116 13.662 13.661 13.662h14.433c7.545 0 13.661-6.116 13.661-13.662v-13.75h39.45v13.75c0 7.533 6.128 13.662 13.661 13.662h14.433c7.533 0 13.661-6.128 13.661-13.662v-285.669c.003-7.533-6.125-13.661-13.658-13.661zm-378.2 253.714-37.256 40.821c-2.215 2.428-5.371 3.821-8.658 3.821h-47.457c-6.463 0-11.721-5.259-11.721-11.722v-8.603c0-6.463 5.258-11.722 11.721-11.722h23.191c7.589 0 14.85-3.239 19.92-8.887l46.105-51.36h47.565zm107.396-83.022v8.603c0 6.463-5.258 11.721-11.721 11.721h-34.665c-.178-.013-.353-.039-.534-.039h-67.953c-.045 0-.09.006-.135.007-6.169-.332-11.089-5.439-11.089-11.689v-8.603c0-6.463 5.259-11.722 11.722-11.722h47.849 54.805c6.463 0 11.721 5.259 11.721 11.722zm-25.697-26.769h-37.328l-46.852-55.66h37.328zm111.665-250.863c28.367 0 51.883 21.176 55.571 48.549h-111.142c3.688-27.373 27.203-48.549 55.571-48.549zm50.127 404.885h-100.253v-79.512h100.253zm0-94.559h-100.253v-122.646-47.092-48.127h100.253zm9.1-232.912h-1.577-115.299-1.577v-13.818h118.453zm16.307 100.712h-10.36v-30.015h10.36zm81.207 199.348h-39.45v-29.329h39.45zm0-44.376h-39.45v-29.329h39.45zm0-44.376h-39.45v-29.329h39.45zm0-44.376h-39.45v-29.328h39.45zm0-44.375h-39.45v-29.329h39.45zm26.709 204.914h-11.663v-282.899h11.663z"/><path d="m297.329 369.372h32.348c5.84 0 10.592-4.752 10.592-10.592v-15.052c0-12.459-10.135-22.594-22.594-22.594h-8.346c-12.459 0-22.594 10.135-22.594 22.594v15.052c.002 5.84 4.754 10.592 10.594 10.592zm4.455-25.645c0-4.161 3.385-7.547 7.547-7.547h8.346c4.161 0 7.547 3.385 7.547 7.547v10.598h-23.44z"/><path d="m297.329 299.949h32.348c5.84 0 10.592-4.752 10.592-10.593v-15.052c0-12.459-10.135-22.594-22.594-22.594h-8.346c-12.459 0-22.594 10.135-22.594 22.594v15.052c.002 5.841 4.754 10.593 10.594 10.593zm4.455-25.645c0-4.161 3.385-7.547 7.547-7.547h8.346c4.161 0 7.547 3.385 7.547 7.547v10.598h-23.44z"/><path d="m297.329 230.527h32.348c5.84 0 10.592-4.752 10.592-10.593v-15.052c0-12.458-10.135-22.594-22.594-22.594h-8.346c-12.459 0-22.594 10.135-22.594 22.594v15.052c.002 5.841 4.754 10.593 10.594 10.593zm4.455-25.645c0-4.161 3.385-7.547 7.547-7.547h8.346c4.161 0 7.547 3.385 7.547 7.547v10.598h-23.44z"/></g></g></svg>