<svg id="Layer_3" enable-background="new 0 0 64 64" height="512" viewBox="0 0 64 64" width="512" xmlns="http://www.w3.org/2000/svg"><path d="m8 29h8c.552 0 1-.447 1-1v-6c0-.553-.448-1-1-1h-8c-.552 0-1 .447-1 1v6c0 .553.448 1 1 1zm7-2h-2v-4h2zm-6-4h2v4h-2z"/><path d="m20 29h8c.552 0 1-.447 1-1v-6c0-.553-.448-1-1-1h-8c-.552 0-1 .447-1 1v6c0 .553.448 1 1 1zm7-2h-2v-4h2zm-6-4h2v4h-2z"/><path d="m62.287 32.042-29.287-8.786v-1.256h7c2.206 0 4-1.794 4-4 0-1.861-1.278-3.43-3.002-3.874.002-.042.002-.084.002-.126 0-2.757-2.243-5-5-5-2.019 0-3.809 1.215-4.584 3.033-.532.062-1.043.217-1.526.443l-11.183-11.183c-.391-.391-1.023-.391-1.414 0l-14 14c-.188.187-.293.441-.293.707v41h-1c-.552 0-1 .447-1 1v4c0 .553.448 1 1 1h60c.552 0 1-.447 1-1v-4c0-.553-.448-1-1-1h-1v-18.256l.713.214c.094.028.191.042.287.042.212 0 .422-.067.597-.197.254-.19.403-.487.403-.803v-5c0-.441-.29-.831-.713-.958zm-31.287-15.042v14h-26v-14zm0 20h-2v-4h2zm-20-4v4h-2v-4zm2 0h2v4h-2zm4 0h2v4h-2zm4 0h2v4h-2zm4 0h2v4h-2zm-18 0v4h-2v-4zm24 6v2h-26v-2zm.935-25.003c.033.005.127.015.16.016.484.046.894-.294 1.011-.752.34-1.331 1.53-2.261 2.894-2.261 1.654 0 3 1.346 3 3 0 .226-.036.467-.113.76-.081.307-.012.634.187.881.198.247.508.399.819.373.058-.002.113-.009.107-.014 1.103 0 2 .897 2 2s-.897 2-2 2h-7v-4c0-.266-.105-.52-.293-.707l-1.246-1.246c.159-.03.318-.049.474-.05zm-13.935-10.583 11.586 11.586h-23.172zm-13 39.586h26v14h-6v-9c0-.553-.448-1-1-1h-12c-.552 0-1 .447-1 1v9h-6zm8 14v-8h4v8zm6-8h4v8h-4zm42 12h-58v-2h58zm-6-16h-18v-2h18zm-18 2h18v2h-18zm0 4h18v6h-18zm22 6h-2v-15c0-.553-.448-1-1-1h-20c-.552 0-1 .447-1 1v15h-2v-26.656l26 7.8zm2-20.344-28-8.4v-2.912l28 8.4z"/><path d="m50 14h8c2.757 0 5-2.243 5-5 0-2.56-1.933-4.676-4.416-4.966-.775-1.819-2.565-3.034-4.584-3.034-2.757 0-5 2.243-5 5 0 .042 0 .084.002.126-1.724.444-3.002 2.013-3.002 3.874 0 2.206 1.794 4 4 4zm-.062-6.003c.034.005.134.016.168.017.318.025.621-.125.819-.373.199-.247.268-.574.187-.881-.076-.293-.112-.534-.112-.76 0-1.654 1.346-3 3-3 1.364 0 2.554.93 2.894 2.261.117.458.542.776 1.011.752.054-.002.107-.008.095-.013 1.654 0 3 1.346 3 3s-1.346 3-3 3h-8c-1.103 0-2-.897-2-2s.897-2 1.938-2.003z"/></svg>