<?xml version="1.0"?>
<svg xmlns="http://www.w3.org/2000/svg" id="Out_line" data-name="Out line" viewBox="0 0 512 512" width="512" height="512"><title>shop-store-shopping-sale-commerce</title><path d="M320,416h96a8.00008,8.00008,0,0,0,8-8V336a8.00008,8.00008,0,0,0-8-8H320a8.00008,8.00008,0,0,0-8,8v72A8.00008,8.00008,0,0,0,320,416Zm8-72h80v56H328Z"/><path d="M192,328H96.3335a8.00008,8.00008,0,0,0-8,8v72a8.00008,8.00008,0,0,0,8,8H192a8.00008,8.00008,0,0,0,8-8V336A8.00008,8.00008,0,0,0,192,328Zm-8,72H104.3335V344H184Z"/><path d="M472,448H456V311.19507A40.068,40.068,0,0,0,488,272V256a7.972,7.972,0,0,0-2.69092-5.9729l.00586-.00659L416,188.40723V128a24.02718,24.02718,0,0,0-24-24H339.36084l-3.38867-40.66406A7.99979,7.99979,0,0,0,328,56H288V40a23.98433,23.98433,0,0,0-40-17.86914A23.98433,23.98433,0,0,0,208,40V56H184a7.99979,7.99979,0,0,0-7.97217,7.33594L172.63916,104H120a24.02718,24.02718,0,0,0-24,24v60.40723L26.68506,250.02051l.00586.00659A7.972,7.972,0,0,0,24,256v16a40.068,40.068,0,0,0,32,39.19507V448H40a24,24,0,0,0,0,48H472a24,24,0,0,0,0-48Zm0-176a24,24,0,0,1-48,0v-8h48ZM107.04187,200h14.5238l-30,48H53.04187Zm351.91626,48h-38.5238l-30-48h14.5238Zm-87.39246-48,30,48H359.062l-6-48ZM336.938,200l6,48H296V200ZM280,248H232V200h48Zm-64,0H169.062l6-48H216Zm-63.062,0H110.43433l30-48H158.938ZM104,264h48v8a24,24,0,0,1-48,0Zm64,0h48v8a24,24,0,0,1-48,0Zm64,0h48v8a24,24,0,0,1-48,0Zm64,0h48v8a24,24,0,0,1-48,0Zm64,0h48v8a24,24,0,0,1-48,0ZM320.63916,72l6.6665,80H295.36084l-6.6665-80ZM264,32a8.00917,8.00917,0,0,1,8,8V56H256V40A8.00917,8.00917,0,0,1,264,32Zm-40,8a8,8,0,0,1,16,0V56H224ZM191.36084,72H208V88h16V72h16V88h16V72h16.63916l6.6665,80H184.69434ZM112,128a8.00917,8.00917,0,0,1,8-8h51.30591l-3.27808,39.33594A7.99926,7.99926,0,0,0,176,168H336a7.99926,7.99926,0,0,0,7.97217-8.66406L340.69409,120H392a8.00917,8.00917,0,0,1,8,8v56H112ZM40,272v-8H88v8a24,24,0,0,1-48,0Zm32,39.19507a40.06992,40.06992,0,0,0,24-15.2229,39.95835,39.95835,0,0,0,64,0,39.95835,39.95835,0,0,0,64,0,39.95835,39.95835,0,0,0,64,0,39.95835,39.95835,0,0,0,64,0,39.95835,39.95835,0,0,0,64,0,40.06992,40.06992,0,0,0,24,15.2229V448H296V336a8.00008,8.00008,0,0,0-8-8H224a8.00008,8.00008,0,0,0-8,8V448H72ZM280,448H232V344h48Zm192,32H40a8,8,0,0,1,0-16H472a8,8,0,0,1,0,16Z"/></svg>
