<svg id="Capa_1" enable-background="new 0 0 511.15 511.15" height="512" viewBox="0 0 511.15 511.15" width="512" xmlns="http://www.w3.org/2000/svg"><g><g><g><path d="m252.196 114.547c0-2.756-1.49-5.158-3.705-6.461l-111.492-100.102c-6.214-5.58-15.586-5.578-21.802 0l-33.633 30.196c-3.082 2.768-3.337 7.51-.57 10.592 2.767 3.081 7.509 3.338 10.592.57l33.633-30.197c.502-.449 1.258-.45 1.76.001l97.903 87.901h-197.567l29.271-26.28c3.082-2.768 3.337-7.51.57-10.592-2.768-3.081-7.509-3.339-10.592-.57l-42.86 38.481c-2.214 1.304-3.704 3.706-3.704 6.461v358.987c0 .062.008.122.009.184-.001.062-.009.122-.009.184v25.949c0 4.143 3.357 7.5 7.5 7.5h46.944c4.143 0 7.5-3.357 7.5-7.5v-18.816h128.308v18.816c0 4.143 3.357 7.5 7.5 7.5h46.944c4.143 0 7.5-3.357 7.5-7.5v-25.949c0-.062-.008-.122-.009-.184.001-.062.009-.122.009-.184zm-61.544 96.504h-129.108c-8.05 0-14.6 6.549-14.6 14.599v240.385h-31.944v-343.817h222.196v343.816h-31.944v-240.384c0-8.05-6.55-14.599-14.6-14.599zm-143.708 281.3h-31.944v-10.949h31.944zm15-266.3h128.308v239.983h-128.308zm175.252 266.3h-31.944v-10.949h31.944z"/></g></g><g><g><path d="m511.15 114.547c0-2.756-1.49-5.158-3.705-6.461l-111.492-100.101c-6.214-5.582-15.588-5.579-21.802-.001-.001 0-.001 0-.001 0l-111.491 100.102c-2.214 1.304-3.705 3.705-3.705 6.461v358.987c0 .062.008.122.009.184-.001.062-.009.122-.009.184v25.949c0 4.143 3.357 7.5 7.5 7.5h46.944c4.143 0 7.5-3.357 7.5-7.5v-18.816h128.308v18.816c0 4.143 3.357 7.5 7.5 7.5h46.944c4.143 0 7.5-3.357 7.5-7.5v-25.949c0-.062-.008-.122-.009-.184.001-.062.009-.122.009-.184zm-126.979-95.401c.504-.451 1.259-.451 1.761 0l97.903 87.901h-197.566zm-78.273 473.205h-31.944v-10.949h31.944zm190.252 0h-31.944v-10.949h31.944zm0-26.316h-31.944v-151.955c0-4.143-3.357-7.5-7.5-7.5s-7.5 3.357-7.5 7.5v151.955h-128.308v-239.984h128.308v41.528c0 4.143 3.357 7.5 7.5 7.5s7.5-3.357 7.5-7.5v-41.93c0-8.05-6.55-14.599-14.6-14.599h-129.108c-8.05 0-14.6 6.549-14.6 14.599v240.385h-31.944v-343.816h222.196z"/></g></g></g></svg>